<svg xmlns="http://www.w3.org/2000/svg" width="20.34" height="19.328" viewBox="0 0 20.34 19.328"><defs><style>.a{fill:#ff6e39;}.b{fill:none;stroke:#ff6e39;stroke-linecap:round;stroke-linejoin:round;}</style></defs><g transform="translate(-821.076 -377.529)"><path class="a" d="M840.786,403.6a.6.6,0,1,1-.6-.6A.6.6,0,0,1,840.786,403.6Z" transform="translate(-12.626 -17.497)"/><path class="a" d="M850.972,403.6a.6.6,0,1,1-.6-.6A.6.6,0,0,1,850.972,403.6Z" transform="translate(-19.763 -17.497)"/><path class="a" d="M861.157,403.6a.6.6,0,1,1-.6-.6A.6.6,0,0,1,861.157,403.6Z" transform="translate(-26.899 -17.497)"/><path class="b" d="M830.8,378.029a7.95,7.95,0,0,0-7.029,11.672l-2.2,3.652,4.627-.886-.006-.008a7.951,7.951,0,1,0,4.606-14.43Z"/><path class="b" d="M852.477,405.209a6.718,6.718,0,0,1,.184,6.614l1.858,3.086-3.91-.749,0-.007a6.711,6.711,0,0,1-9.624-1.962" transform="translate(-13.603 -19.045)"/></g></svg>