<svg xmlns="http://www.w3.org/2000/svg" width="33" height="33" viewBox="0 0 33 33"><defs><style>.a{fill:#ff6e39;}.b{fill:none;stroke:#fff;stroke-linecap:round;stroke-linejoin:round;}</style></defs><g transform="translate(-464 -790.148)"><circle class="a" cx="16.5" cy="16.5" r="16.5" transform="translate(464 790.148)"/><g transform="translate(471.75 798.064)"><path class="b" d="M201.4,554.014c.084-.008.166-.021.252-.021a2.107,2.107,0,0,1,2.27,1.892v3.279a2.107,2.107,0,0,1-2.27,1.892c-.087,0-.252-.021-.252-.021" transform="translate(-185.263 -547.435)"/><path class="b" d="M150.7,554.014c-.084-.008-.166-.021-.252-.021a2.107,2.107,0,0,0-2.27,1.892v3.279a2.107,2.107,0,0,0,2.27,1.892c.087,0,.169-.014.252-.021l.388-.055" transform="translate(-148.179 -547.435)"/><path class="b" d="M160.825,548.966a5.045,5.045,0,0,1-4.329-4.994v-6.558a5.045,5.045,0,0,1,5.044-5.044h3.531a5.045,5.045,0,0,1,5.044,5.044v8.576" transform="translate(-153.974 -532.369)"/><path class="b" d="M175.855,586.856a1.261,1.261,0,0,1-1.261,1.261h-3.531a1.261,1.261,0,0,1-1.261-1.261h0a1.261,1.261,0,0,1,1.261-1.261h3.531a1.261,1.261,0,0,1,1.261,1.261Z" transform="translate(-163.244 -569.453)"/></g></g></svg>