<svg xmlns="http://www.w3.org/2000/svg" width="88" height="88" viewBox="0 0 88 88"><defs><style>.a{fill:rgba(255,110,57,0.14);}.b{fill:none;stroke:#ff6e39;stroke-linecap:round;stroke-linejoin:round;stroke-width:2px;}</style></defs><g transform="translate(-858 -306)"><circle class="a" cx="44" cy="44" r="44" transform="translate(858 306)"/><g transform="translate(879.255 327.255)"><path class="b" d="M201.4,554.045c.2-.018.4-.052.615-.052,3.055,0,5.532,2.064,5.532,4.609v7.99c0,2.547-2.477,4.61-5.532,4.61-.211,0-.615-.052-.615-.052" transform="translate(-162.068 -538.012)"/><path class="b" d="M154.326,554.045c-.2-.018-.4-.052-.615-.052-3.055,0-5.532,2.064-5.532,4.609v7.99c0,2.547,2.477,4.61,5.532,4.61.211,0,.411-.034.615-.052l.945-.134" transform="translate(-148.179 -538.012)"/><path class="b" d="M167.045,572.813a12.3,12.3,0,0,1-10.549-12.17V544.662a12.293,12.293,0,0,1,12.293-12.293h8.6a12.293,12.293,0,0,1,12.293,12.293v20.9" transform="translate(-150.349 -532.369)"/><path class="b" d="M184.554,588.669a3.072,3.072,0,0,1-3.073,3.073h-8.6a3.073,3.073,0,0,1-3.074-3.073h0a3.074,3.074,0,0,1,3.074-3.074h8.6a3.073,3.073,0,0,1,3.073,3.074Z" transform="translate(-153.821 -546.258)"/></g></g></svg>