<svg xmlns="http://www.w3.org/2000/svg" xmlns:xlink="http://www.w3.org/1999/xlink" width="29" height="29" viewBox="0 0 29 29"><defs><style>.a{fill:none;}.b{fill:#fff;}.c{clip-path:url(#a);}.d{fill:url(#b);}.e{fill:url(#c);}.f{fill:url(#d);}.g{fill:url(#e);}</style><clipPath id="a"><path class="a" d="M316.054,274.635l-2.759-1.593-5.322-3.073c-.3-.171-.59-.068-.59.289v12.52c0,.267.211.383.467.234l5.445-3.144,2.759-1.593,2.652-1.531c.311-.18.281-.426.019-.568S316.054,274.635,316.054,274.635Z" transform="translate(-307.383 -269.889)"/></clipPath><linearGradient id="b" x1="0.5" x2="0.5" y2="1" gradientUnits="objectBoundingBox"><stop offset="0" stop-color="#207cb0"/><stop offset="0.376" stop-color="#3bb2be"/><stop offset="0.796" stop-color="#57e9ce"/><stop offset="1" stop-color="#63ffd4"/></linearGradient><linearGradient id="c" y1="0.5" x2="1" y2="0.5" gradientUnits="objectBoundingBox"><stop offset="0" stop-color="#4bc3ae"/><stop offset="1" stop-color="#dee999"/></linearGradient><linearGradient id="d" x1="0.5" x2="0.5" y2="1" gradientUnits="objectBoundingBox"><stop offset="0" stop-color="#ec403d"/><stop offset="0.384" stop-color="#c83a75"/><stop offset="0.799" stop-color="#a635ac"/><stop offset="1" stop-color="#9934c2"/></linearGradient><linearGradient id="e" x1="0.5" x2="0.5" y2="1" gradientUnits="objectBoundingBox"><stop offset="0" stop-color="#f87"/><stop offset="0.612" stop-color="#ffb175"/><stop offset="1" stop-color="#ffc774"/></linearGradient></defs><g transform="translate(-866.506 -913)"><circle class="b" cx="14.5" cy="14.5" r="14.5" transform="translate(866.506 913)"/><g transform="translate(568.572 651.482)"><g class="c" transform="translate(307.383 269.889)"><path class="d" d="M307.383,269v13.555l6.835-6.777Z" transform="translate(-307.383 -269.212)"/><path class="e" d="M316.054,273.8l-2.759-1.593-5.912-3.413v.049l6.835,6.778Z" transform="translate(-307.383 -269.054)"/><path class="f" d="M307.383,304.3v.049l5.912-3.413,2.759-1.593-1.836-1.82Z" transform="translate(-307.383 -290.957)"/><path class="g" d="M337.984,289.862l-1.836,1.82,1.836,1.82,3.153-1.82Z" transform="translate(-329.313 -285.116)"/></g></g></g></svg>