<svg xmlns="http://www.w3.org/2000/svg" width="24" height="24" viewBox="0 0 24 24"><defs><style>.a{fill:#fff;}.b{fill:none;}</style></defs><g transform="translate(2493 -1011)"><path class="a" d="M154.822,235.846a2.97,2.97,0,0,0-2.1-2.1c-1.849-.5-9.265-.5-9.265-.5s-7.416,0-9.265.5a2.97,2.97,0,0,0-2.1,2.1,33.139,33.139,0,0,0,0,11.416,2.971,2.971,0,0,0,2.1,2.1c1.849.5,9.265.5,9.265.5s7.415,0,9.265-.5a2.971,2.971,0,0,0,2.1-2.1,33.113,33.113,0,0,0,0-11.416Zm-13.733,9.265V238l6.161,3.557Z" transform="translate(-2624.604 781.446)"/><rect class="b" width="24" height="24" transform="translate(-2493 1011)"/></g></svg>