<svg xmlns="http://www.w3.org/2000/svg" width="120" height="50" viewBox="0 0 120 50"><defs><style>.a{fill:none;}.b{fill:#1a1818;}</style></defs><g transform="translate(-854 -612)"><rect class="a" width="120" height="50" transform="translate(854 612)"/><g transform="translate(563.913 353.603)"><path class="b" d="M304.135,273.28a5.618,5.618,0,0,0-5.611,5.611h0v14.962h1.87V278.891a3.741,3.741,0,0,1,3.741-3.741H396.3a3.74,3.74,0,0,1,3.74,3.741v14.962h1.871V278.891a5.618,5.618,0,0,0-5.611-5.611Z" transform="translate(0)"/><g transform="translate(307.875 279.391)"><path class="b" d="M328.549,299.532c0,.147-.093.2-.253.2h-1.387c-.16,0-.213-.054-.213-.214v-3.774a.261.261,0,0,0-.294-.267h-3.64a.236.236,0,0,0-.254.267v3.774c0,.16-.093.214-.239.214h-1.414c-.133,0-.187-.054-.187-.2v-9.375c0-.147.054-.227.187-.227h1.414a.214.214,0,0,1,.239.227v3.627a.226.226,0,0,0,.254.253h3.64c.174,0,.294-.08.294-.253v-3.627c0-.147.053-.227.213-.227H328.3c.16,0,.253.08.253.227Z" transform="translate(-320.668 -289.01)"/><path class="b" d="M345.125,303.039a1.527,1.527,0,0,1-1.56-1.533v-5.827c0-.174.067-.254.227-.254h1.333c.133,0,.227.08.227.254v5.627c0,.16.067.24.253.24h2.44c.16,0,.266-.08.266-.24v-5.627c0-.174.067-.254.227-.254h1.334a.222.222,0,0,1,.24.254v8.495a1.444,1.444,0,0,1-.16.613l-.907,1.481a.394.394,0,0,1-.333.213h-.173c-.16,0-.227-.093-.227-.24V302.48c0-.16-.093-.227-.24-.186l-2.56.72A1.923,1.923,0,0,1,345.125,303.039Z" transform="translate(-333.896 -292.185)"/><path class="b" d="M364.836,303.026a1.542,1.542,0,0,1-1.533-1.533v-5.814c0-.174.066-.254.226-.254h1.347c.12,0,.214.08.214.254v5.627c0,.16.08.227.267.227h2.44c.16,0,.267-.067.267-.227v-5.627c0-.174.054-.254.213-.254h1.333a.223.223,0,0,1,.241.254v7.027c0,.147-.094.2-.241.2h-1.333c-.16,0-.213-.054-.213-.214v-.214c0-.173-.107-.24-.253-.186l-2.561.693A1.431,1.431,0,0,1,364.836,303.026Z" transform="translate(-345.299 -292.185)"/><path class="b" d="M389.587,296.7v5.841c0,.147-.093.2-.24.2h-1.334c-.16,0-.214-.054-.214-.214V296.9a.245.245,0,0,0-.266-.266h-2.44a.234.234,0,0,0-.266.266v5.628a.19.19,0,0,1-.214.214h-1.347c-.16,0-.227-.054-.227-.2v-7.028c0-.174.067-.254.227-.254h1.347c.12,0,.214.08.214.254v.227c0,.147.067.213.266.16l2.548-.694a1.955,1.955,0,0,1,.386-.067A1.57,1.57,0,0,1,389.587,296.7Z" transform="translate(-356.702 -292.021)"/><path class="b" d="M402.143,297.06V293.7a1.714,1.714,0,0,1,.947-1.614l1.414-.827a1.655,1.655,0,0,1,.934-.267h1.226c.173,0,.253-.067.253-.227V288c0-.146.067-.253.2-.253h1.36c.16,0,.227.106.227.253v10.268c0,.147-.067.2-.227.2h-1.36c-.134,0-.2-.054-.2-.214v-.214c0-.173-.08-.24-.253-.186l-2.573.693a1.389,1.389,0,0,1-.4.04A1.577,1.577,0,0,1,402.143,297.06Zm4.774-.187v-4.227c0-.187-.08-.28-.267-.28h-2.467c-.187,0-.254.093-.254.28v4.227c0,.16.067.227.254.227h2.467C406.837,297.1,406.917,297.033,406.917,296.873Z" transform="translate(-367.738 -287.752)"/><path class="b" d="M422.824,303.026a1.545,1.545,0,0,1-1.546-1.533v-3.361a1.725,1.725,0,0,1,.933-1.614l1.427-.827a1.642,1.642,0,0,1,.92-.267h3.054c.147,0,.227.08.227.254v7.027c0,.147-.08.2-.227.2h-1.36c-.147,0-.2-.054-.2-.214v-.214c0-.173-.093-.24-.266-.186l-2.561.693A1.386,1.386,0,0,1,422.824,303.026Zm3.227-1.72v-4.227c0-.187-.093-.28-.266-.28h-2.467c-.187,0-.254.093-.254.28v4.227c0,.16.067.227.254.227h2.467C425.958,301.533,426.051,301.466,426.051,301.306Z" transform="translate(-378.793 -292.185)"/><path class="b" d="M442.833,289.1c0,.16-.093.213-.227.213h-1.334c-.173,0-.226-.053-.226-.213V288c0-.146.053-.253.226-.253h1.334a.232.232,0,0,1,.227.253Zm0,9.175c0,.147-.093.2-.227.2h-1.334c-.173,0-.226-.054-.226-.2v-7.028c0-.174.053-.254.226-.254h1.334c.134,0,.227.08.227.254Z" transform="translate(-390.214 -287.752)"/><g transform="translate(56.361)"><path class="b" d="M454.137,297.811v-5.054a1.865,1.865,0,0,1,.973-1.707l1.561-.867a1.776,1.776,0,0,1,.92-.253H460.9a.213.213,0,0,1,.241.24v.974c0,.147-.081.213-.241.213H456.27c-.16,0-.227.094-.227.267v6.427c0,.173.067.253.227.253h4.761c.146,0,.24.067.24.2a.375.375,0,0,1-.214.347l-1.146.64a1.882,1.882,0,0,1-.947.241h-2.881A1.9,1.9,0,0,1,454.137,297.811Z" transform="translate(-454.137 -289.01)"/><path class="b" d="M475.2,303.026a1.545,1.545,0,0,1-1.547-1.533v-3.361a1.725,1.725,0,0,1,.934-1.614l1.427-.827a1.644,1.644,0,0,1,.92-.267h3.054c.146,0,.227.08.227.254v7.027c0,.147-.081.2-.227.2H478.63c-.146,0-.2-.054-.2-.214v-.214c0-.173-.093-.24-.267-.186l-2.56.693A1.391,1.391,0,0,1,475.2,303.026Zm3.227-1.72v-4.227a.244.244,0,0,0-.267-.28H475.7c-.186,0-.253.093-.253.28v4.227c0,.16.067.227.253.227h2.467C478.337,301.533,478.431,301.466,478.431,301.306Z" transform="translate(-465.414 -292.185)"/><path class="b" d="M498.333,296.489c0,.133-.093.2-.24.2h-2.627c-.173,0-.24.093-.24.266v5.628c0,.16-.106.214-.24.214H493.64c-.16,0-.214-.054-.214-.2V295.57c0-.174.054-.254.214-.254h1.347a.228.228,0,0,1,.24.254v.213c0,.146.067.213.24.213a.313.313,0,0,0,.147-.027l.773-.507a1.926,1.926,0,0,1,.921-.226h.787a.214.214,0,0,1,.24.226Z" transform="translate(-476.835 -292.076)"/><path class="b" d="M505.682,297.06V293.7a1.713,1.713,0,0,1,.947-1.614l1.413-.827a1.658,1.658,0,0,1,.934-.267H510.2c.173,0,.253-.067.253-.227V288c0-.146.067-.253.2-.253h1.361c.159,0,.226.106.226.253v10.268c0,.147-.067.2-.226.2h-1.361c-.133,0-.2-.054-.2-.214v-.214c0-.173-.08-.24-.253-.186l-2.574.693a1.389,1.389,0,0,1-.4.04A1.577,1.577,0,0,1,505.682,297.06Zm4.774-.187v-4.227c0-.187-.08-.28-.267-.28h-2.467c-.187,0-.253.093-.253.28v4.227c0,.16.067.227.253.227h2.467C510.376,297.1,510.456,297.033,510.456,296.873Z" transform="translate(-483.916 -287.752)"/></g></g></g></g></svg>