<svg xmlns="http://www.w3.org/2000/svg" xmlns:xlink="http://www.w3.org/1999/xlink" width="120" height="50" viewBox="0 0 120 50"><defs><style>.a{fill:none;}.b{fill:#fff;}.c{fill:#0072c0;}.d{clip-path:url(#a);}.e{fill:#0074c2;}.f{fill:#0076c3;}.g{fill:#0078c5;}.h{fill:#007ac6;}.i{fill:#007bc8;}.j{fill:#007dc9;}.k{fill:#007fca;}.l{fill:#0081cc;}.m{fill:#0083cd;}.n{fill:#0085cf;}.o{fill:#0087d0;}.p{fill:#0089d2;}.q{fill:#008bd3;}.r{fill:#008dd5;}.s{fill:#0090d6;}.t{fill:#0092d8;}.u{fill:#0094da;}.v{fill:#0096db;}.w{fill:#09d;}.x{fill:#009bde;}.y{fill:#009de0;}.z{fill:#00a0e1;}.aa{fill:#00a2e3;}.ab{fill:#00a5e5;}.ac{fill:#00a7e6;}.ad{fill:#00aae8;}.ae{fill:#00acea;}.af{fill:#00afeb;}.ag{fill:#00b2ed;}.ah{fill:#00b5ef;}.ai{fill:#00baf2;}.aj{fill:#12bbf3;}.ak{fill:#23bdf3;}.al{fill:#2fbff4;}.am{fill:#39c1f4;}.an{fill:#42c3f4;}.ao{fill:#4ac4f5;}.ap{fill:#52c6f5;}.aq{fill:#5ac8f5;}.ar{fill:#62caf6;}.as{fill:#69ccf6;}.at{fill:#70cef7;}.au{fill:#77d0f7;}.av{fill:#7ed3f8;}.aw{fill:#85d5f8;}.ax{fill:#8cd7f8;}.ay{fill:#93d9f9;}.az{fill:#9adcf9;}.ba{fill:#a1defa;}.bb{fill:#a8e0fa;}.bc{fill:#afe2fa;}.bd{fill:#b6e5fb;}.be{fill:#bde7fb;}.bf{fill:#c3eafc;}.bg{fill:#caecfc;}.bh{fill:#d1eefc;}.bi{fill:#d8f1fd;}.bj{fill:#dff3fd;}.bk{fill:#e6f6fe;}.bl{fill:#edf8fe;}.bm{fill:#f4fbfe;}.bn{fill:#00569d;}</style><clipPath id="a"><path class="a" d="M167.655,249.561a10.243,10.243,0,1,0-10.247-10.243A10.243,10.243,0,0,0,167.655,249.561Z" transform="translate(-157.408 -229.075)"/></clipPath></defs><g transform="translate(-1001 -612)"><rect class="a" width="120" height="50" transform="translate(1001 612)"/><g transform="translate(860.977 400.303)"><g transform="translate(154.023 225.697)"><path class="b" d="M175.534,236.453A10.755,10.755,0,1,1,164.785,225.7,10.756,10.756,0,0,1,175.534,236.453Z" transform="translate(-154.023 -225.697)"/><g transform="translate(0.521 0.511)"><path class="c" d="M167.655,249.514a10.247,10.247,0,1,0-10.247-10.247A10.243,10.243,0,0,0,167.655,249.514Z" transform="translate(-157.408 -229.02)"/></g><g transform="translate(0.521 0.52)"><g class="d"><g transform="translate(-0.533 3.437)"><path class="c" d="M164.816,263.153c4.508,0,8.362,1.259,10.022,3.039a10.465,10.465,0,0,0,.852-4.144,10.874,10.874,0,0,0-21.744,0,10.45,10.45,0,0,0,.855,4.14C156.457,264.412,160.317,263.153,164.816,263.153Z" transform="translate(-153.947 -251.408)"/><path class="e" d="M164.959,263.664c4.5,0,8.341,1.248,10,3.015a10.324,10.324,0,0,0,.851-4.111,10.848,10.848,0,0,0-21.688,0,10.313,10.313,0,0,0,.853,4.107C156.622,264.912,160.472,263.664,164.959,263.664Z" transform="translate(-154.092 -251.907)"/><path class="f" d="M165.1,264.176c4.485,0,8.32,1.238,9.97,2.99a10.185,10.185,0,0,0,.849-4.078,10.821,10.821,0,0,0-21.633,0,10.177,10.177,0,0,0,.851,4.074C156.786,265.414,160.627,264.176,165.1,264.176Z" transform="translate(-154.236 -252.407)"/><path class="g" d="M165.246,264.687c4.473,0,8.3,1.228,9.945,2.965a10.048,10.048,0,0,0,.847-4.044,10.795,10.795,0,0,0-21.577,0,10.04,10.04,0,0,0,.849,4.041C156.951,265.915,160.782,264.687,165.246,264.687Z" transform="translate(-154.381 -252.907)"/><path class="h" d="M165.389,265.2c4.462,0,8.277,1.217,9.919,2.941a9.911,9.911,0,0,0,.845-4.011,10.769,10.769,0,0,0-21.522,0,9.9,9.9,0,0,0,.847,4.008C157.116,266.415,160.936,265.2,165.389,265.2Z" transform="translate(-154.526 -253.407)"/><path class="i" d="M165.533,265.709c4.45,0,8.256,1.207,9.893,2.916a9.773,9.773,0,0,0,.843-3.978,10.743,10.743,0,0,0-21.466,0,9.771,9.771,0,0,0,.845,3.975C157.282,266.916,161.092,265.709,165.533,265.709Z" transform="translate(-154.671 -253.907)"/><path class="j" d="M165.677,266.221c4.438,0,8.235,1.2,9.867,2.892a9.638,9.638,0,0,0,.841-3.945,10.717,10.717,0,0,0-21.411,0,9.636,9.636,0,0,0,.843,3.942C157.446,267.417,161.247,266.221,165.677,266.221Z" transform="translate(-154.816 -254.407)"/><path class="k" d="M165.82,266.732c4.427,0,8.213,1.186,9.841,2.867a9.5,9.5,0,0,0,.839-3.912,10.692,10.692,0,0,0-21.355,0,9.5,9.5,0,0,0,.841,3.909C157.611,267.918,161.4,266.732,165.82,266.732Z" transform="translate(-154.961 -254.906)"/><path class="l" d="M165.963,267.243c4.415,0,8.192,1.176,9.815,2.843a9.37,9.37,0,0,0,.838-3.879c0-5.5-4.771-10.074-10.653-10.074s-10.647,4.573-10.647,10.077a9.371,9.371,0,0,0,.839,3.876C157.776,268.419,161.557,267.243,165.963,267.243Z" transform="translate(-155.105 -255.406)"/><path class="m" d="M166.107,267.755c4.4,0,8.171,1.166,9.789,2.818a9.234,9.234,0,0,0,.836-3.845c0-5.456-4.759-10-10.625-10s-10.62,4.549-10.62,10.006a9.238,9.238,0,0,0,.837,3.843C157.941,268.92,161.712,267.755,166.107,267.755Z" transform="translate(-155.25 -255.906)"/><path class="n" d="M166.25,268.265c4.392,0,8.149,1.155,9.764,2.793a9.1,9.1,0,0,0,.834-3.812c0-5.408-4.747-9.933-10.6-9.933s-10.592,4.526-10.592,9.935a9.108,9.108,0,0,0,.835,3.81C158.106,269.421,161.867,268.265,166.25,268.265Z" transform="translate(-155.395 -256.405)"/><path class="o" d="M166.394,268.777c4.38,0,8.128,1.145,9.738,2.769a8.972,8.972,0,0,0,.832-3.779c0-5.361-4.734-9.862-10.57-9.862s-10.564,4.5-10.564,9.864a8.979,8.979,0,0,0,.833,3.777C158.271,269.922,162.023,268.777,166.394,268.777Z" transform="translate(-155.54 -256.905)"/><path class="p" d="M166.537,269.288c4.369,0,8.107,1.135,9.712,2.744a8.841,8.841,0,0,0,.83-3.746c0-5.314-4.722-9.791-10.542-9.791S156,262.975,156,268.289a8.852,8.852,0,0,0,.831,3.744C158.436,270.423,162.178,269.288,166.537,269.288Z" transform="translate(-155.685 -257.405)"/><path class="q" d="M166.681,269.8c4.357,0,8.085,1.124,9.686,2.72a8.712,8.712,0,0,0,.828-3.712c0-5.266-4.709-9.72-10.514-9.72s-10.509,4.455-10.509,9.722a8.722,8.722,0,0,0,.829,3.711C158.6,270.923,162.333,269.8,166.681,269.8Z" transform="translate(-155.83 -257.904)"/><path class="r" d="M166.824,270.311c4.346,0,8.064,1.114,9.66,2.695a8.582,8.582,0,0,0,.826-3.679c0-5.219-4.7-9.649-10.487-9.649s-10.481,4.432-10.481,9.651a8.594,8.594,0,0,0,.827,3.678C158.766,271.425,162.488,270.311,166.824,270.311Z" transform="translate(-155.974 -258.404)"/><path class="s" d="M166.967,270.822c4.334,0,8.043,1.1,9.635,2.671a8.454,8.454,0,0,0,.824-3.646c0-5.171-4.684-9.578-10.459-9.578s-10.453,4.408-10.453,9.58a8.466,8.466,0,0,0,.826,3.645C158.931,271.926,162.643,270.822,166.967,270.822Z" transform="translate(-156.119 -258.905)"/><path class="t" d="M167.111,271.333c4.322,0,8.021,1.093,9.609,2.646a8.324,8.324,0,0,0,.822-3.613c0-5.124-4.672-9.508-10.431-9.508s-10.425,4.385-10.425,9.509a8.34,8.34,0,0,0,.824,3.612C159.1,272.426,162.8,271.333,167.111,271.333Z" transform="translate(-156.264 -259.404)"/><path class="u" d="M167.255,271.844c4.311,0,8,1.083,9.583,2.621a8.2,8.2,0,0,0,.821-3.58c0-5.077-4.659-9.437-10.4-9.437s-10.4,4.361-10.4,9.438a8.215,8.215,0,0,0,.822,3.579C159.261,272.927,162.954,271.844,167.255,271.844Z" transform="translate(-156.409 -259.904)"/><path class="v" d="M167.4,272.356c4.3,0,7.979,1.073,9.557,2.6a8.072,8.072,0,0,0,.819-3.546c0-5.029-4.647-9.366-10.376-9.366s-10.37,4.338-10.37,9.367a8.089,8.089,0,0,0,.82,3.546C159.426,273.429,163.109,272.356,167.4,272.356Z" transform="translate(-156.554 -260.404)"/><path class="w" d="M167.541,272.866c4.287,0,7.958,1.062,9.531,2.572a7.945,7.945,0,0,0,.817-3.513c0-4.982-4.634-9.3-10.348-9.3s-10.342,4.314-10.342,9.3a7.966,7.966,0,0,0,.818,3.513C159.591,273.929,163.264,272.866,167.541,272.866Z" transform="translate(-156.699 -260.903)"/><path class="x" d="M167.684,273.378c4.276,0,7.936,1.052,9.505,2.548a7.82,7.82,0,0,0,.815-3.48c0-4.934-4.622-9.224-10.32-9.224s-10.314,4.291-10.314,9.225a7.841,7.841,0,0,0,.816,3.48C159.755,274.43,163.419,273.378,167.684,273.378Z" transform="translate(-156.843 -261.403)"/><path class="y" d="M167.828,273.89c4.264,0,7.915,1.042,9.479,2.523a7.7,7.7,0,0,0,.813-3.447c0-4.887-4.609-9.154-10.293-9.154s-10.287,4.267-10.287,9.154a7.718,7.718,0,0,0,.814,3.447C159.92,274.931,163.573,273.89,167.828,273.89Z" transform="translate(-156.988 -261.903)"/><path class="z" d="M167.972,274.4c4.253,0,7.894,1.032,9.454,2.5a7.575,7.575,0,0,0,.811-3.413c0-4.84-4.6-9.083-10.265-9.083s-10.259,4.244-10.259,9.083a7.6,7.6,0,0,0,.812,3.414C160.086,275.432,163.729,274.4,167.972,274.4Z" transform="translate(-157.133 -262.402)"/><path class="aa" d="M168.115,274.912c4.241,0,7.872,1.021,9.428,2.474a7.454,7.454,0,0,0,.809-3.38c0-4.792-4.584-9.012-10.237-9.012s-10.231,4.22-10.231,9.012a7.476,7.476,0,0,0,.81,3.381C160.251,275.933,163.884,274.912,168.115,274.912Z" transform="translate(-157.278 -262.902)"/><path class="ab" d="M168.259,275.423c4.229,0,7.851,1.011,9.4,2.449a7.332,7.332,0,0,0,.807-3.347c0-4.745-4.572-8.941-10.21-8.941s-10.2,4.2-10.2,8.941a7.358,7.358,0,0,0,.808,3.348C160.416,276.434,164.039,275.423,168.259,275.423Z" transform="translate(-157.423 -263.402)"/><path class="ac" d="M168.4,275.934c4.218,0,7.83,1,9.376,2.425a7.212,7.212,0,0,0,.806-3.314c0-4.7-4.56-8.871-10.182-8.871s-10.176,4.173-10.176,8.87a7.237,7.237,0,0,0,.806,3.315C160.58,276.934,164.194,275.934,168.4,275.934Z" transform="translate(-157.567 -263.902)"/><path class="ad" d="M168.545,276.445c4.206,0,7.808.99,9.35,2.4a7.091,7.091,0,0,0,.8-3.281c0-4.65-4.547-8.8-10.154-8.8s-10.148,4.15-10.148,8.8a7.12,7.12,0,0,0,.8,3.282C160.745,277.436,164.349,276.445,168.545,276.445Z" transform="translate(-157.712 -264.402)"/><path class="ae" d="M168.689,276.957c4.194,0,7.787.98,9.324,2.375a6.973,6.973,0,0,0,.8-3.247c0-4.6-4.535-8.729-10.126-8.729s-10.12,4.126-10.12,8.728a7,7,0,0,0,.8,3.249C160.911,277.937,164.5,276.957,168.689,276.957Z" transform="translate(-157.858 -264.902)"/><path class="af" d="M168.832,277.468c4.183,0,7.766.97,9.3,2.351a6.855,6.855,0,0,0,.8-3.214c0-4.555-4.522-8.658-10.1-8.658s-10.092,4.1-10.092,8.657a6.884,6.884,0,0,0,.8,3.216C161.076,278.437,164.66,277.468,168.832,277.468Z" transform="translate(-158.002 -265.401)"/><path class="ag" d="M168.976,277.979c4.171,0,7.744.959,9.273,2.326a6.739,6.739,0,0,0,.8-3.181c0-4.508-4.51-8.587-10.071-8.587s-10.065,4.079-10.065,8.586a6.769,6.769,0,0,0,.8,3.183C161.24,278.938,164.815,277.979,168.976,277.979Z" transform="translate(-158.147 -265.901)"/><path class="ah" d="M169.119,278.491c4.16,0,7.723.949,9.247,2.3a6.622,6.622,0,0,0,.8-3.148c0-4.461-4.5-8.516-10.043-8.516s-10.037,4.056-10.037,8.515a6.653,6.653,0,0,0,.8,3.15C161.405,279.44,164.97,278.491,169.119,278.491Z" transform="translate(-158.292 -266.401)"/><path class="ai" d="M169.262,279c4.148,0,7.7.939,9.221,2.277a6.506,6.506,0,0,0,.794-3.115c0-4.413-4.485-8.446-10.016-8.446-5.516,0-10.009,4.032-10.009,8.444a6.539,6.539,0,0,0,.795,3.117C161.57,279.94,165.125,279,169.262,279Z" transform="translate(-158.436 -266.9)"/><path class="aj" d="M169.338,279.487c4.143,0,7.692.933,9.209,2.262a6.44,6.44,0,0,0,.793-3.094c0-4.385-4.479-8.394-10-8.394s-10,4.009-10,8.392a6.471,6.471,0,0,0,.793,3.1C161.656,280.419,165.206,279.487,169.338,279.487Z" transform="translate(-158.512 -267.36)"/><path class="ak" d="M169.412,279.971c4.137,0,7.681.927,9.2,2.248a6.375,6.375,0,0,0,.792-3.074c0-4.356-4.473-8.342-9.989-8.342s-9.982,3.986-9.982,8.34a6.406,6.406,0,0,0,.792,3.076C161.74,280.9,165.286,279.972,169.412,279.971Z" transform="translate(-158.586 -267.818)"/><path class="al" d="M169.487,280.457c4.131,0,7.671.921,9.184,2.233a6.308,6.308,0,0,0,.791-3.054c0-4.328-4.467-8.29-9.975-8.29s-9.969,3.962-9.969,8.288a6.336,6.336,0,0,0,.791,3.056C161.825,281.378,165.366,280.457,169.487,280.457Z" transform="translate(-158.661 -268.278)"/><path class="am" d="M169.561,280.943c4.126,0,7.661.915,9.171,2.218a6.243,6.243,0,0,0,.79-3.033c0-4.3-4.461-8.238-9.961-8.238s-9.955,3.939-9.955,8.236a6.271,6.271,0,0,0,.79,3.036C161.909,281.857,165.446,280.943,169.561,280.943Z" transform="translate(-158.735 -268.737)"/><path class="an" d="M169.636,281.427c4.12,0,7.65.909,9.159,2.2a6.179,6.179,0,0,0,.789-3.013c0-4.271-4.455-8.186-9.948-8.186s-9.941,3.916-9.941,8.184a6.2,6.2,0,0,0,.789,3.015C161.995,282.336,165.527,281.428,169.636,281.427Z" transform="translate(-158.81 -269.196)"/><path class="ao" d="M169.711,281.913c4.114,0,7.64.9,9.146,2.188a6.114,6.114,0,0,0,.788-2.992c0-4.242-4.449-8.135-9.934-8.135s-9.928,3.892-9.928,8.132a6.139,6.139,0,0,0,.787,2.995C162.08,282.815,165.607,281.913,169.711,281.913Z" transform="translate(-158.885 -269.655)"/><path class="ap" d="M169.785,282.4c4.109,0,7.63.9,9.134,2.174a6.047,6.047,0,0,0,.787-2.972c0-4.214-4.443-8.083-9.921-8.083s-9.914,3.869-9.914,8.081a6.074,6.074,0,0,0,.786,2.975C162.164,283.294,165.687,282.4,169.785,282.4Z" transform="translate(-158.959 -270.114)"/><path class="aq" d="M169.86,282.883c4.1,0,7.62.891,9.121,2.159a5.984,5.984,0,0,0,.786-2.952c0-4.185-4.437-8.031-9.907-8.031s-9.9,3.846-9.9,8.029a6.008,6.008,0,0,0,.785,2.954C162.249,283.774,165.767,282.883,169.86,282.883Z" transform="translate(-159.034 -270.573)"/><path class="ar" d="M169.935,283.368c4.1,0,7.609.885,9.109,2.144a5.921,5.921,0,0,0,.785-2.931c0-4.157-4.431-7.979-9.893-7.979s-9.887,3.822-9.887,7.977a5.943,5.943,0,0,0,.784,2.934C162.334,284.253,165.848,283.369,169.935,283.368Z" transform="translate(-159.109 -271.033)"/><path class="as" d="M170.009,283.853c4.092,0,7.6.879,9.1,2.129a5.856,5.856,0,0,0,.784-2.911c0-4.128-4.425-7.927-9.88-7.927s-9.873,3.8-9.873,7.925a5.879,5.879,0,0,0,.783,2.914C162.419,284.732,165.928,283.854,170.009,283.853Z" transform="translate(-159.184 -271.491)"/><path class="at" d="M170.084,284.339c4.086,0,7.589.873,9.083,2.114a5.794,5.794,0,0,0,.783-2.891c0-4.1-4.419-7.875-9.866-7.875s-9.86,3.775-9.86,7.873a5.814,5.814,0,0,0,.781,2.894C162.5,285.211,166.008,284.339,170.084,284.339Z" transform="translate(-159.258 -271.951)"/><path class="au" d="M170.158,284.823c4.081,0,7.578.867,9.071,2.1a5.729,5.729,0,0,0,.782-2.87c0-4.071-4.413-7.823-9.853-7.823s-9.846,3.752-9.846,7.821a5.75,5.75,0,0,0,.78,2.873C162.588,285.69,166.088,284.824,170.158,284.823Z" transform="translate(-159.332 -272.409)"/><path class="av" d="M170.234,285.309c4.075,0,7.568.861,9.058,2.085a5.666,5.666,0,0,0,.78-2.85c0-4.043-4.407-7.772-9.839-7.772s-9.833,3.729-9.833,7.769a5.685,5.685,0,0,0,.779,2.853C162.673,286.17,166.169,285.31,170.234,285.309Z" transform="translate(-159.408 -272.869)"/><path class="aw" d="M170.308,285.794c4.069,0,7.558.855,9.046,2.07a5.605,5.605,0,0,0,.779-2.83c0-4.014-4.4-7.72-9.825-7.72s-9.819,3.705-9.819,7.717a5.623,5.623,0,0,0,.778,2.833C162.758,286.649,166.249,285.8,170.308,285.794Z" transform="translate(-159.482 -273.328)"/><path class="ax" d="M170.383,286.279c4.064,0,7.548.849,9.033,2.055a5.542,5.542,0,0,0,.778-2.809c0-3.986-4.395-7.668-9.812-7.668s-9.806,3.682-9.806,7.666a5.56,5.56,0,0,0,.777,2.812C162.843,287.128,166.329,286.28,170.383,286.279Z" transform="translate(-159.557 -273.787)"/><path class="ay" d="M170.458,286.764c4.058,0,7.537.843,9.021,2.04a5.48,5.48,0,0,0,.777-2.789c0-3.957-4.389-7.616-9.8-7.616s-9.792,3.659-9.792,7.614a5.5,5.5,0,0,0,.775,2.792C162.928,287.607,166.41,286.765,170.458,286.764Z" transform="translate(-159.632 -274.246)"/><path class="az" d="M170.532,287.249c4.052,0,7.527.837,9.008,2.025a5.418,5.418,0,0,0,.776-2.768c0-3.929-4.383-7.564-9.784-7.564s-9.778,3.635-9.778,7.562a5.433,5.433,0,0,0,.774,2.772C163.013,288.086,166.49,287.25,170.532,287.249Z" transform="translate(-159.706 -274.705)"/><path class="ba" d="M170.607,287.735c4.047,0,7.517.831,9,2.011a5.357,5.357,0,0,0,.775-2.748c0-3.9-4.377-7.512-9.771-7.512s-9.765,3.612-9.765,7.51a5.372,5.372,0,0,0,.773,2.752C163.1,288.566,166.57,287.736,170.607,287.735Z" transform="translate(-159.781 -275.164)"/><path class="bb" d="M170.681,288.219c4.041,0,7.506.825,8.983,2a5.3,5.3,0,0,0,.774-2.728c0-3.872-4.371-7.46-9.757-7.46s-9.751,3.589-9.751,7.458a5.309,5.309,0,0,0,.772,2.731C163.182,289.044,166.65,288.221,170.681,288.219Z" transform="translate(-159.855 -275.623)"/><path class="bc" d="M170.757,288.7c4.036,0,7.5.819,8.971,1.981a5.235,5.235,0,0,0,.773-2.707c0-3.843-4.365-7.409-9.744-7.409s-9.738,3.565-9.738,7.406a5.249,5.249,0,0,0,.771,2.711C163.267,289.524,166.73,288.706,170.757,288.7Z" transform="translate(-159.931 -276.082)"/><path class="bd" d="M170.831,289.19c4.03,0,7.486.813,8.958,1.966a5.174,5.174,0,0,0,.772-2.687c0-3.815-4.359-7.357-9.73-7.357s-9.724,3.542-9.724,7.354a5.186,5.186,0,0,0,.769,2.691C163.352,290,166.811,289.192,170.831,289.19Z" transform="translate(-160.005 -276.542)"/><path class="be" d="M170.905,289.675c4.024,0,7.476.807,8.946,1.952a5.113,5.113,0,0,0,.771-2.667c0-3.786-4.353-7.3-9.716-7.3s-9.71,3.519-9.71,7.3a5.125,5.125,0,0,0,.768,2.67C163.437,290.482,166.891,289.676,170.905,289.675Z" transform="translate(-160.08 -277)"/><path class="bf" d="M170.98,290.16c4.019,0,7.465.8,8.933,1.937a5.053,5.053,0,0,0,.77-2.646c0-3.758-4.347-7.253-9.7-7.253s-9.7,3.5-9.7,7.251a5.064,5.064,0,0,0,.767,2.65C163.521,290.962,166.971,290.162,170.98,290.16Z" transform="translate(-160.154 -277.46)"/><path class="bg" d="M171.055,290.645c4.013,0,7.455.8,8.921,1.922a4.994,4.994,0,0,0,.769-2.626c0-3.729-4.341-7.2-9.689-7.2s-9.683,3.472-9.683,7.2a5.005,5.005,0,0,0,.766,2.63C163.607,291.44,167.051,290.647,171.055,290.645Z" transform="translate(-160.229 -277.918)"/><path class="bh" d="M171.13,291.131c4.007,0,7.445.789,8.908,1.907a4.933,4.933,0,0,0,.767-2.605c0-3.7-4.335-7.149-9.676-7.149s-9.67,3.449-9.67,7.147a4.944,4.944,0,0,0,.765,2.609C163.691,291.92,167.131,291.132,171.13,291.131Z" transform="translate(-160.304 -278.378)"/><path class="bi" d="M171.2,291.616c4,0,7.434.783,8.9,1.892a4.875,4.875,0,0,0,.766-2.585c0-3.672-4.329-7.1-9.662-7.1s-9.656,3.425-9.656,7.1a4.884,4.884,0,0,0,.763,2.589C163.776,292.4,167.212,291.618,171.2,291.616Z" transform="translate(-160.378 -278.837)"/><path class="bj" d="M171.279,292.1c4,0,7.424.777,8.883,1.877a4.816,4.816,0,0,0,.765-2.565c0-3.644-4.323-7.046-9.648-7.046s-9.642,3.4-9.642,7.043a4.826,4.826,0,0,0,.762,2.569C163.861,292.878,167.292,292.1,171.279,292.1Z" transform="translate(-160.454 -279.296)"/><path class="bk" d="M171.354,292.586c3.99,0,7.414.771,8.871,1.863a4.758,4.758,0,0,0,.764-2.544c0-3.615-4.317-6.993-9.635-6.993s-9.629,3.378-9.629,6.991a4.766,4.766,0,0,0,.761,2.549C163.946,293.358,167.372,292.588,171.354,292.586Z" transform="translate(-160.528 -279.755)"/><path class="bl" d="M171.428,293.071c3.985,0,7.4.765,8.858,1.848a4.7,4.7,0,0,0,.763-2.524c0-3.587-4.311-6.942-9.621-6.942s-9.615,3.355-9.615,6.94a4.708,4.708,0,0,0,.76,2.528C164.031,293.836,167.452,293.073,171.428,293.071Z" transform="translate(-160.602 -280.214)"/><path class="bm" d="M171.5,293.556c3.979,0,7.393.759,8.845,1.833a4.643,4.643,0,0,0,.762-2.5c0-3.558-4.3-6.89-9.607-6.89s-9.6,3.332-9.6,6.888a4.648,4.648,0,0,0,.759,2.508C164.115,294.316,167.532,293.558,171.5,293.556Z" transform="translate(-160.677 -280.673)"/><path class="b" d="M171.578,294.042c3.974,0,7.383.753,8.833,1.818a4.585,4.585,0,0,0,.761-2.483c0-3.53-4.3-6.838-9.594-6.838s-9.588,3.308-9.588,6.836a4.591,4.591,0,0,0,.757,2.488C164.2,294.8,167.613,294.044,171.578,294.042Z" transform="translate(-160.752 -281.133)"/></g></g></g><path class="c" d="M172.5,312.414A26.938,26.938,0,0,0,163.137,314a10.254,10.254,0,0,0,18.722,0A26.944,26.944,0,0,0,172.5,312.414Z" transform="translate(-161.734 -299.069)"/></g><g transform="translate(178.323 227.28)"><g transform="translate(0 0)"><path class="bn" d="M311.928,306.447h6.778v5.838h2.652v-5.838h6.778V304.8H311.928Z" transform="translate(-311.928 -294.206)"/><path class="bn" d="M328.275,243.816a6.3,6.3,0,0,0,1.853.966,7.231,7.231,0,0,0,2.284.353,7.157,7.157,0,0,0,2.265-.353,6.373,6.373,0,0,0,1.855-.966,5.019,5.019,0,0,0,1.263-1.465,3.637,3.637,0,0,0,0-3.567,5.01,5.01,0,0,0-1.265-1.465,6.518,6.518,0,0,0-1.852-.974,7.289,7.289,0,0,0-4.55,0,6.491,6.491,0,0,0-1.854.976,4.825,4.825,0,0,0-1.254,1.465,3.666,3.666,0,0,0-.459,1.772,3.7,3.7,0,0,0,.459,1.793A4.863,4.863,0,0,0,328.275,243.816Zm.939-3.258a2.588,2.588,0,0,1,.252-1.113,2.954,2.954,0,0,1,.687-.93,3.222,3.222,0,0,1,1.011-.65,3.318,3.318,0,0,1,1.249-.236,3.275,3.275,0,0,1,1.23.236,3.213,3.213,0,0,1,1.013.652,3.081,3.081,0,0,1,.7.93,2.517,2.517,0,0,1,.259,1.111,2.567,2.567,0,0,1-.259,1.132,3.107,3.107,0,0,1-.7.93,3.044,3.044,0,0,1-1.011.64,3.52,3.52,0,0,1-2.48,0,3.068,3.068,0,0,1-1.013-.64,2.965,2.965,0,0,1-.685-.93A2.624,2.624,0,0,1,329.214,240.558Z" transform="translate(-324.309 -235.981)"/><path class="bn" d="M441.044,238.005h-2.064l.126.156a.437.437,0,0,1,.093.215,5.536,5.536,0,0,1,.09,1.181v8.222c0,.514-.3.859-.917,1.052a4.44,4.44,0,0,1-.959.133H431.79c-.3,0-.394-.067-.426-.11a.612.612,0,0,1-.092-.375V245.2h4.856a.806.806,0,0,0,.6-.177.723.723,0,0,0,.167-.522v-5.276a.717.717,0,0,0-.178-.526.854.854,0,0,0-.608-.173h-7.583v1.65h5.717v3.374h-5.9l.174.362a2.412,2.412,0,0,1,.106.764v4.731a1.075,1.075,0,0,0,.306.766,1.789,1.789,0,0,0,1.337.438H436.9l1.049-.04a3.351,3.351,0,0,0,1.345-.347v5.352h2.651V238.723C441.941,238.4,441.785,238.024,441.044,238.005Z" transform="translate(-410.426 -237.694)"/><path class="bn" d="M609.248,238.683c0-.309-.156-.678-.9-.678h-2.034l.173.356a4.781,4.781,0,0,1,.107,1.176v16.039h2.652V245.257h2.495v-1.648h-2.495Z" transform="translate(-561.012 -237.694)"/><path class="bn" d="M541.13,241.4h-8.067v1.629l5.886,0a.367.367,0,0,1,.118.048s.015.027-.008.141a10.663,10.663,0,0,1-.6,2.955h-5.3v1.65h4.527a12.478,12.478,0,0,1-5.348,4.685l-.1.049.732,1.145.072-.026c5.863-2.022,8.842-5.924,8.854-11.594C541.9,241.764,541.763,241.4,541.13,241.4Z" transform="translate(-498.334 -240.563)"/><path class="bn" d="M656.777,244.979a2.324,2.324,0,0,1,.142.838v6.05a1.3,1.3,0,0,0,.38.922,1.953,1.953,0,0,0,1.467.514h10.468v-1.648h-9.164c-.345,0-.5-.139-.5-.446v-5h9.571v-1.648H656.505l.116.156A.954.954,0,0,1,656.777,244.979Z" transform="translate(-603.477 -243.236)"/><rect class="bn" width="16.207" height="1.65" transform="translate(51.45 14.313)"/></g></g></g></g></svg>