<svg xmlns="http://www.w3.org/2000/svg" width="936" height="310" viewBox="0 0 936 310"><defs><style>.a,.d{fill:#ff6e39;}.b,.e{fill:#fff;}.b,.c,.f{stroke:#ff6e39;}.b{stroke-width:3px;}.c,.f,.h{fill:none;}.c{stroke-dasharray:4 6;}.d,.e{stroke:rgba(255,110,57,0.31);stroke-width:2px;}.f{opacity:0.3;}.g{stroke:none;}</style></defs><g transform="translate(-492 -552)"><circle class="a" cx="121" cy="121" r="121" transform="translate(492 586)"/><circle class="a" cx="121" cy="121" r="121" transform="translate(1186 586)"/><g class="b" transform="translate(825 571)"><circle class="g" cx="136" cy="136" r="136"/><circle class="h" cx="136" cy="136" r="134.5"/></g><g transform="translate(-17 -209)"><line class="c" x2="92" transform="translate(753.5 916.5)"/><g class="d" transform="translate(838 913)"><circle class="g" cx="4" cy="4" r="4"/><circle class="h" cx="4" cy="4" r="5"/></g><g class="e" transform="translate(747 913)"><circle class="g" cx="4" cy="4" r="4"/><circle class="h" cx="4" cy="4" r="5"/></g></g><g transform="translate(1091 704)"><line class="c" x1="92" transform="translate(0.5 3.5)"/><g class="d"><circle class="g" cx="4" cy="4" r="4"/><circle class="h" cx="4" cy="4" r="5"/></g><g class="e" transform="translate(91)"><circle class="g" cx="4" cy="4" r="4"/><circle class="h" cx="4" cy="4" r="5"/></g></g><g class="f" transform="translate(806 552)"><circle class="g" cx="155" cy="155" r="155"/><circle class="h" cx="155" cy="155" r="154.5"/></g></g></svg>