<svg xmlns="http://www.w3.org/2000/svg" width="24" height="24" viewBox="0 0 24 24"><defs><style>.a,.b,.c{fill:none;}.b{stroke:#ff6e39;}.b,.c{stroke-linecap:round;stroke-linejoin:round;}.c{stroke:#222;}</style></defs><rect class="a" width="24" height="24"/><g transform="translate(-651.562 -530.144)"><path class="b" d="M686.825,572.506l5.126,5.126.029-3.98,3.98-.029-4-4" transform="translate(-22.612 -25.571)"/><path class="b" d="M657.776,569.624l-4,4,3.98.029.029,3.98,5.129-5.129" transform="translate(0 -25.571)"/><path class="c" d="M668.528,546.776a7.263,7.263,0,1,1,7.263-7.263A7.271,7.271,0,0,1,668.528,546.776Z" transform="translate(-5.125)"/><path class="c" d="M677.079,551.379a3.316,3.316,0,1,1,3.316-3.316A3.319,3.319,0,0,1,677.079,551.379Z" transform="translate(-13.675 -8.551)"/></g></svg>