<svg xmlns="http://www.w3.org/2000/svg" width="24" height="24" viewBox="0 0 24 24"><defs><style>.a,.b,.c{fill:none;}.b{stroke:#ff6e39;}.b,.c{stroke-linecap:round;stroke-linejoin:round;}.c{stroke:#222;}</style></defs><rect class="a" width="24" height="24"/><g transform="translate(-483.703 -376.82)"><path class="b" d="M525.628,397.431c0-2.147-2.488-6.785-5.876-7.732a.5.5,0,0,1-.048-.939,5.141,5.141,0,0,0,3.105-4.715,5.224,5.224,0,0,0-8.918-3.694" transform="translate(-19.069)"/><path class="c" d="M500.787,401.924c0-2.147-2.488-6.785-5.875-7.732a.5.5,0,0,1-.048-.94,5.141,5.141,0,0,0,3.106-4.715,5.224,5.224,0,1,0-7.465,4.715c.53.251.512.818.054.94-3.377.953-5.855,5.656-5.855,7.732" transform="translate(0 -2.935)"/></g></svg>