<svg xmlns="http://www.w3.org/2000/svg" width="24" height="25" viewBox="0 0 24 25"><defs><style>.a,.b,.c{fill:none;}.b{stroke:#222;}.b,.c{stroke-linecap:round;stroke-linejoin:round;}.c{stroke:#ff6e39;}</style></defs><g transform="translate(0 0.5)"><rect class="a" width="24" height="24"/><path class="b" d="M1017.62,588.811a1.854,1.854,0,1,0,3.708,0" transform="translate(-1007.12 -566.665)"/><path class="b" d="M1014.069,553.691a.78.78,0,0,0,.778-.777v-1.555a.736.736,0,0,0-.039-.192,6.62,6.62,0,1,0-6.873,0,.744.744,0,0,0-.039.192v1.555a.78.78,0,0,0,.778.777" transform="translate(-999.252 -535.236)"/><path class="b" d="M1020.193,580.085v-.461a.78.78,0,0,0-.778-.778h-5.395a.78.78,0,0,0-.778.778v.461a.744.744,0,0,1,0,1.213v.461a.78.78,0,0,0,.778.778h5.395a.78.78,0,0,0,.778-.778V581.3a.744.744,0,0,1,0-1.213Z" transform="translate(-1004.743 -560.391)"/><line class="b" x2="4.62" transform="translate(9.5 20.301)"/><g transform="translate(7)"><line class="c" y2="1.834" transform="translate(4.909 0)"/><line class="c" x1="0.917" y2="1.588" transform="translate(8.901 1.315)"/><line class="c" x2="0.917" y2="1.588" transform="translate(0 1.315)"/></g></g></svg>