<svg xmlns="http://www.w3.org/2000/svg" width="24" height="24" viewBox="0 0 24 24"><defs><style>.a,.b,.c{fill:none;}.b{stroke:#000;}.b,.c{stroke-linecap:round;stroke-linejoin:round;}.c{stroke:#ff6e39;}</style></defs><rect class="a" width="24" height="24"/><g transform="translate(-145.006 -836.378)"><path class="b" d="M162.786,876.737l3.566,1.173a1.26,1.26,0,0,0,1.616-.754h0a1.26,1.26,0,0,0-.754-1.615l-5.891-2a3.781,3.781,0,0,0-2.712.123l-2.663,1.186" transform="translate(-6.466 -23.587)"/><path class="b" d="M172.1,882.428l3.748-1.526a1.261,1.261,0,0,1,1.675.61h0a1.261,1.261,0,0,1-.61,1.675l-5.713,2.664-.238.1a3.782,3.782,0,0,1-3.319-.165l-2.265-1.251a3.782,3.782,0,0,0-3.34-.157" transform="translate(-10.636 -28.682)"/><path class="b" d="M146.506,876.992l1.982-.91a.63.63,0,0,1,.839.3l2.085,4.912a.631.631,0,0,1-.3.84l-4.606,2.284" transform="translate(0 -25.421)"/><circle class="b" cx="0.315" cy="0.315" r="0.315" transform="translate(147.647 853.115)"/><path class="c" d="M182.542,848.842v-7.566a3.264,3.264,0,0,1,.953-2.373" transform="translate(-24.679)"/><path class="c" d="M182.958,853.215s-.521-5.2,7.217-3.8C190.176,849.414,187.845,857.525,182.958,853.215Z" transform="translate(-24.959 -7.036)"/><line class="c" y1="2.309" x2="4.7" transform="translate(157.999 843.87)"/><path class="c" d="M168.157,846.157s.452-4.508-6.258-3.3C161.9,842.861,163.92,849.895,168.157,846.157Z" transform="translate(-10.542 -2.57)"/><line class="c" x1="4.076" y1="2.002" transform="translate(153.54 841.585)"/><path class="b" d="M170.313,871.63a7.51,7.51,0,0,1,3.185-.692,6.433,6.433,0,0,1,6.211,3.841" transform="translate(-16.304 -21.94)"/></g></svg>