<svg xmlns="http://www.w3.org/2000/svg" width="24" height="24" viewBox="0 0 24 24"><defs><style>.a,.b,.c{fill:none;}.b{stroke:#ff6e39;}.b,.c{stroke-linecap:round;stroke-linejoin:round;}.c{stroke:#222;}</style></defs><rect class="a" width="24" height="24"/><g transform="translate(-312.75 -533.311)"><g transform="translate(320.756 541.643)"><path class="b" d="M335.988,551.2l1.715,4.117,1.556-4.117,1.666,4.117,1.531-4.117" transform="translate(-335.368 -551.197)"/><line class="b" x2="7.707" transform="translate(0 1.77)"/></g><rect class="c" width="19.881" height="12.781" rx="1" transform="translate(314.757 537.311)"/><path class="c" d="M334.652,581.693a.71.71,0,0,1-.71.71H315.481a.71.71,0,0,1-.71-.71" transform="translate(-0.014 -30.537)"/><path class="c" d="M334.652,576v3.55a.71.71,0,0,1-.71.71H315.481a.71.71,0,0,1-.71-.71V576" transform="translate(-0.014 -26.622)"/><path class="c" d="M318.365,537.311a3.594,3.594,0,0,1-3.594,3.595" transform="translate(-0.014 0)"/><path class="c" d="M370.008,540.906a3.6,3.6,0,0,1-3.594-3.595" transform="translate(-35.547 0)"/><path class="c" d="M314.75,566.669a3.594,3.594,0,0,1,3.594,3.594" transform="translate(0 -20.2)"/><path class="c" d="M366.393,570.263a3.594,3.594,0,0,1,3.595-3.594" transform="translate(-35.532 -20.2)"/></g></svg>