<svg xmlns="http://www.w3.org/2000/svg" width="24" height="24" viewBox="0 0 24 24"><defs><style>.a,.b,.c{fill:none;}.b{stroke:#222;}.b,.c{stroke-linecap:round;stroke-linejoin:round;}.c{stroke:#ff6e39;}</style></defs><rect class="a" width="24" height="24"/><g transform="translate(-988.074 -684.521)"><path class="b" d="M990.074,718.057V706.52h6.685" transform="translate(0 -13.046)"/><path class="b" d="M1011.408,693.446V687.52h6.685v9.294" transform="translate(-14.648 0)"/><path class="b" d="M1032.741,717.4h6.685v8.129" transform="translate(-29.296 -20.513)"/><path class="c" d="M1019.324,694.762l.94-.627v4.231" transform="translate(-20.084 -4.542)"/><path class="c" d="M998.188,714.3l.313-.313a1.091,1.091,0,0,1,1.517-.167,1.015,1.015,0,0,1,.363.783h0a1.026,1.026,0,0,1-.622.943l-.432.185a1.914,1.914,0,0,0-1.139,1.752h2.194" transform="translate(-5.571 -17.894)"/><g transform="translate(1005.686 698.809)"><path class="c" d="M1040.205,729.711h.762a.879.879,0,0,1,.9.872h0a1.055,1.055,0,0,1-1.471.98l-.5-.182" transform="translate(-1039.892 -727.779)"/><path class="c" d="M1040.205,725.466h.762a.878.878,0,0,0,.9-.872h0a1.055,1.055,0,0,0-1.471-.98l-.5.182" transform="translate(-1039.892 -723.544)"/></g><line class="b" x1="20.056" transform="translate(990.074 705.011)"/></g></svg>