<svg xmlns="http://www.w3.org/2000/svg" width="24" height="24.5" viewBox="0 0 24 24.5"><defs><style>.a,.b,.c{fill:none;}.b{stroke:#000;}.b,.c{stroke-linecap:round;stroke-linejoin:round;}.c{stroke:#ff6e39;}</style></defs><path class="a" d="M0,0H24V24H0Z"/><g transform="translate(-318.354 -376.272)"><path class="b" d="M340.23,400.272c0-2.653-3.075-8.385-7.261-9.555a.614.614,0,0,1-.059-1.161,6.354,6.354,0,0,0,3.838-5.827,6.456,6.456,0,1,0-9.225,5.827c.654.311.632,1.01.067,1.161-4.174,1.178-7.237,6.991-7.237,9.555" transform="translate(0)"/><g transform="translate(328.64 391.136)"><path class="c" d="M345.666,421.322a2.415,2.415,0,0,0-1.814-.005l-.744,5.594,1.711,1.255,1.591-1.251Z" transform="translate(-343.108 -419.029)"/><path class="c" d="M346.14,417.632l.472-1.939a2.886,2.886,0,0,0-2.758,0l.473,1.938" transform="translate(-343.582 -415.338)"/></g><line class="c" x2="1.322" y2="0.769" transform="translate(327.59 390.717)"/><line class="c" y1="0.773" x2="1.299" transform="translate(331.67 390.717)"/></g></svg>