<svg xmlns="http://www.w3.org/2000/svg" width="24" height="24" viewBox="0 0 24 24"><defs><style>.a,.b,.c{fill:none;}.b{stroke:#222;}.b,.c{stroke-linecap:round;stroke-linejoin:round;}.c{stroke:#ff6e39;}</style></defs><rect class="a" width="24" height="24"/><g transform="translate(-151.058 -990.281)"><g transform="translate(155.058 995.151)"><path class="b" d="M155.129,1019.591l7.054-16.715a.632.632,0,0,1,1.162-.007l7.264,16.625a.888.888,0,0,1-.808,1.244l-13.848.087A.888.888,0,0,1,155.129,1019.591Z" transform="translate(-155.058 -1002.489)"/><path class="b" d="M183.59,1040.722c-.373.813-3.125,3.485-5.928,5.073" transform="translate(-169.856 -1027.519)"/><path class="b" d="M168.331,1025.8a30.332,30.332,0,0,1-10.774,7.206" transform="translate(-156.694 -1017.75)"/><path class="b" d="M172.514,1011.16a15.444,15.444,0,0,1-5.2,4.288" transform="translate(-163.083 -1008.166)"/></g><path class="c" d="M175.927,993.658a1.89,1.89,0,1,1-1.339-2.313A1.89,1.89,0,0,1,175.927,993.658Z" transform="translate(-11.229)"/></g></svg>