<svg xmlns="http://www.w3.org/2000/svg" width="24" height="24" viewBox="0 0 24 24"><defs><style>.a,.b,.c{fill:none;}.b{stroke:#ff6e39;}.b,.c{stroke-linecap:round;stroke-linejoin:round;}.c{stroke:#222;}</style></defs><rect class="a" width="24" height="24"/><g transform="translate(-312.222 -683.664)"><g transform="translate(319.989 685.664)"><g transform="translate(0 1.456)"><path class="b" d="M334.762,690.162h-1.941s-.763,5.124,3.127,6.3" transform="translate(-332.761 -690.162)"/><path class="b" d="M362.258,690.162h1.94s.9,5.04-2.812,6.3" transform="translate(-352.12 -690.162)"/></g><path class="b" d="M340.275,709.62a1.117,1.117,0,0,1-1.117,1.117" transform="translate(-337.086 -701.865)"/><path class="b" d="M361.387,709.62a1.118,1.118,0,0,0,1.118,1.117" transform="translate(-352.12 -701.865)"/><path class="b" d="M343.833,697.75v-2.266l.68-.547a5.418,5.418,0,0,0,1.991-3.662l.58-5.611h-8.128l.591,5.718a5.445,5.445,0,0,0,1.849,3.555l.811.547V697.1" transform="translate(-336.951 -685.664)"/></g><path class="c" d="M330.341,721.326l3.663,1.2a1.294,1.294,0,0,0,1.659-.774h0a1.3,1.3,0,0,0-.774-1.66l-6.051-2.058a3.886,3.886,0,0,0-2.786.126l-2.735,1.218" transform="translate(-6.385 -21.76)"/><path class="c" d="M339.74,726.969l3.85-1.567a1.3,1.3,0,0,1,1.721.626h0a1.3,1.3,0,0,1-.626,1.721l-5.867,2.737-.245.1a3.885,3.885,0,0,1-3.409-.17l-2.327-1.285a3.884,3.884,0,0,0-3.43-.161" transform="translate(-10.503 -26.792)"/><path class="c" d="M313.876,721.515l2.036-.935a.647.647,0,0,1,.862.308l2.141,5.046a.648.648,0,0,1-.308.862l-4.731,2.347" transform="translate(0 -23.572)"/><circle class="c" cx="0.324" cy="0.324" r="0.324" transform="translate(315.047 699.53)"/></g></svg>