<svg xmlns="http://www.w3.org/2000/svg" width="24" height="24" viewBox="0 0 24 24"><defs><style>.a,.b,.c{fill:none;}.b{stroke:#ff6e39;}.b,.c{stroke-linecap:round;stroke-linejoin:round;}.c{stroke:#222;}</style></defs><rect class="a" width="24" height="24"/><g transform="translate(-988.836 -1144.888)"><g transform="translate(995.377 1146.888)"><path class="b" d="M1016.042,1149.58a2.721,2.721,0,0,0-2.86-2.692,2.858,2.858,0,0,1-5.217,0,2.721,2.721,0,0,0-2.86,2.692,4.018,4.018,0,0,0,.715,2.019c1.481,2.171,4.392,4.711,4.753,4.711.416,0,3.255-2.555,4.669-4.711A5.886,5.886,0,0,0,1016.042,1149.58Z" transform="translate(-1005.105 -1146.888)"/></g><path class="c" d="M1044.821,1167.971v-1.31c0-.511,1.786-2.842,2.561-4.21a2.77,2.77,0,0,0,.352-1.363V1154.2a1.539,1.539,0,0,0-1.687-1.649,1.659,1.659,0,0,0-1.226,1.7v3.649" transform="translate(-36.589 -3.82)"/><path class="c" d="M1033.476,1174.185l1.6-2.455a1.834,1.834,0,0,0-.23-2.154,1.306,1.306,0,0,0-2.1.34l-2.72,4.421a2.853,2.853,0,0,0-.505,1.637v3.257" transform="translate(-26.241 -15.08)"/><rect class="c" width="6.409" height="2.865" rx="1.432" transform="translate(1002.697 1164.151)"/><path class="c" d="M993.634,1167.971v-1.31c0-.511-1.786-2.842-2.561-4.21a2.77,2.77,0,0,1-.352-1.363V1154.2a1.539,1.539,0,0,1,1.687-1.649,1.659,1.659,0,0,1,1.226,1.7v3.649" transform="translate(0 -3.82)"/><path class="c" d="M998.946,1174.185l-1.6-2.455a1.834,1.834,0,0,1,.23-2.154,1.306,1.306,0,0,1,2.1.34l2.72,4.421a2.851,2.851,0,0,1,.505,1.637v3.257" transform="translate(-4.315 -15.08)"/><rect class="c" width="6.409" height="2.865" rx="1.432" transform="translate(999.169 1167.015) rotate(180)"/></g></svg>