<svg xmlns="http://www.w3.org/2000/svg" width="80" height="80" viewBox="0 0 80 80"><defs><style>.a,.ad,.af,.ah,.e,.q{fill:#fff;}.a{stroke:#ddd;}.b{fill:#ff6e39;}.c{opacity:0.4;}.d{fill:#acacac;}.f,.j,.p,.q{opacity:0.8;}.g{fill:#f0f0f0;}.ag,.h,.j,.p,.w,.x{isolation:isolate;}.i{opacity:0.7;}.k{opacity:0.1;}.l{fill:#383838;}.m{fill:#ff9a76;}.n,.w{fill:#ffb573;}.o,.p{fill:#263238;}.r,.s{fill:#f84808;}.ae,.s,.x{opacity:0.2;}.t{fill:#ddd;}.u{fill:#ffa381;}.ad,.ag,.v{opacity:0.3;}.y{fill:#ed893e;}.z{fill:#f7978d;}.aa{fill:#407bff;}.ab{fill:#262626;}.ac{fill:#222;}.af{opacity:0.5;}.ah{opacity:0.6;}.ai{fill:#ff5652;}.aj{stroke:none;}.ak{fill:none;}</style></defs><g transform="translate(-360 -776)"><g class="a" transform="translate(360 776)"><circle class="aj" cx="40" cy="40" r="40"/><circle class="ak" cx="40" cy="40" r="39.5"/></g><g transform="translate(374 793.333)"><g transform="translate(15.068 0)"><g transform="translate(0)"><g transform="translate(0.005 1.85)"><path class="b" d="M-297.456,25.794l.47.608h21.565l.474-.608Z" transform="translate(297.456 -25.794)"/><g class="c"><path d="M-297.456,25.794l.47.608h21.565l.474-.608Z" transform="translate(297.456 -25.794)"/></g></g><g transform="translate(0.431 1.066)"><rect class="d" width="21.615" height="38.317"/><g class="c"><rect class="e" width="21.615" height="38.317"/></g></g><g class="f" transform="translate(0.437 1.555)"><path class="g" d="M-293.165,23.912a.392.392,0,0,1-.387.45.5.5,0,0,1-.481-.45.392.392,0,0,1,.387-.454A.5.5,0,0,1-293.165,23.912Z" transform="translate(294.036 -23.458)"/><g transform="translate(0.796)"><path class="g" d="M-286.859,23.912a.4.4,0,0,1-.391.45.5.5,0,0,1-.478-.45.4.4,0,0,1,.39-.454A.5.5,0,0,1-286.859,23.912Z" transform="translate(287.729 -23.458)"/></g><g transform="translate(1.592)"><path class="g" d="M-280.553,23.912a.4.4,0,0,1-.394.45.494.494,0,0,1-.474-.45.4.4,0,0,1,.394-.454A.494.494,0,0,1-280.553,23.912Z" transform="translate(281.423 -23.458)"/></g><g transform="translate(2.388)"><path class="g" d="M-274.246,23.912a.4.4,0,0,1-.4.45.489.489,0,0,1-.47-.45.4.4,0,0,1,.4-.454A.489.489,0,0,1-274.246,23.912Z" transform="translate(275.117 -23.458)"/></g><g transform="translate(3.184)"><path class="g" d="M-267.941,23.912a.407.407,0,0,1-.4.45.484.484,0,0,1-.467-.45.407.407,0,0,1,.4-.454A.484.484,0,0,1-267.941,23.912Z" transform="translate(268.81 -23.458)"/></g><g transform="translate(3.98)"><path class="g" d="M-261.635,23.912a.411.411,0,0,1-.405.45.48.48,0,0,1-.463-.45.411.411,0,0,1,.4-.454A.48.48,0,0,1-261.635,23.912Z" transform="translate(262.505 -23.458)"/></g><g transform="translate(4.776)"><path class="g" d="M-255.33,23.912a.415.415,0,0,1-.409.45.475.475,0,0,1-.46-.45.415.415,0,0,1,.409-.454A.475.475,0,0,1-255.33,23.912Z" transform="translate(256.199 -23.458)"/></g><g transform="translate(5.572)"><path class="g" d="M-249.024,23.912a.418.418,0,0,1-.412.45.47.47,0,0,1-.456-.45.419.419,0,0,1,.412-.454A.47.47,0,0,1-249.024,23.912Z" transform="translate(249.893 -23.458)"/></g><g transform="translate(6.367)"><path class="g" d="M-242.72,23.912a.422.422,0,0,1-.416.45.466.466,0,0,1-.452-.45.423.423,0,0,1,.416-.454A.466.466,0,0,1-242.72,23.912Z" transform="translate(243.589 -23.458)"/></g><g transform="translate(7.163)"><path class="g" d="M-236.415,23.912a.426.426,0,0,1-.42.45.461.461,0,0,1-.449-.45.426.426,0,0,1,.419-.454A.461.461,0,0,1-236.415,23.912Z" transform="translate(237.284 -23.458)"/></g><g transform="translate(7.959)"><path class="g" d="M-230.11,23.912a.43.43,0,0,1-.423.45.457.457,0,0,1-.445-.45.431.431,0,0,1,.423-.454A.457.457,0,0,1-230.11,23.912Z" transform="translate(230.979 -23.458)"/></g><g transform="translate(8.755)"><path class="g" d="M-223.805,23.912a.435.435,0,0,1-.427.45.452.452,0,0,1-.442-.45.435.435,0,0,1,.427-.454A.452.452,0,0,1-223.805,23.912Z" transform="translate(224.674 -23.458)"/></g><g transform="translate(9.55)"><path class="g" d="M-217.5,23.912a.439.439,0,0,1-.43.45.448.448,0,0,1-.438-.45.439.439,0,0,1,.43-.454A.448.448,0,0,1-217.5,23.912Z" transform="translate(218.37 -23.458)"/></g><g transform="translate(10.346)"><path class="g" d="M-211.2,23.912a.443.443,0,0,1-.434.45.444.444,0,0,1-.434-.45.443.443,0,0,1,.434-.454A.444.444,0,0,1-211.2,23.912Z" transform="translate(212.066 -23.458)"/></g><g transform="translate(11.142)"><path class="g" d="M-204.894,23.912a.447.447,0,0,1-.437.45.439.439,0,0,1-.431-.45.447.447,0,0,1,.437-.454A.44.44,0,0,1-204.894,23.912Z" transform="translate(205.762 -23.458)"/></g><g transform="translate(11.937)"><path class="g" d="M-198.591,23.912a.452.452,0,0,1-.441.45.435.435,0,0,1-.427-.45.452.452,0,0,1,.441-.454A.435.435,0,0,1-198.591,23.912Z" transform="translate(199.459 -23.458)"/></g><g transform="translate(12.733)"><path class="g" d="M-192.287,23.912a.456.456,0,0,1-.445.45.431.431,0,0,1-.424-.45.456.456,0,0,1,.445-.454A.431.431,0,0,1-192.287,23.912Z" transform="translate(193.156 -23.458)"/></g><g transform="translate(13.528)"><path class="g" d="M-185.984,23.912a.46.46,0,0,1-.448.45.427.427,0,0,1-.42-.45.46.46,0,0,1,.448-.454A.427.427,0,0,1-185.984,23.912Z" transform="translate(186.852 -23.458)"/></g><g transform="translate(14.324)"><path class="g" d="M-179.682,23.912a.465.465,0,0,1-.452.45.423.423,0,0,1-.417-.45.465.465,0,0,1,.452-.454A.423.423,0,0,1-179.682,23.912Z" transform="translate(180.55 -23.458)"/></g><g transform="translate(15.119)"><path class="g" d="M-173.379,23.912a.47.47,0,0,1-.455.45.419.419,0,0,1-.413-.45.47.47,0,0,1,.456-.454A.419.419,0,0,1-173.379,23.912Z" transform="translate(174.247 -23.458)"/></g><g transform="translate(15.915)"><path class="g" d="M-167.076,23.912a.474.474,0,0,1-.459.45.415.415,0,0,1-.409-.45.474.474,0,0,1,.459-.454A.415.415,0,0,1-167.076,23.912Z" transform="translate(167.945 -23.458)"/></g><g transform="translate(16.71)"><path class="g" d="M-160.773,23.912a.479.479,0,0,1-.462.45.411.411,0,0,1-.406-.45.479.479,0,0,1,.463-.454A.411.411,0,0,1-160.773,23.912Z" transform="translate(161.643 -23.458)"/></g><g transform="translate(17.506)"><path class="g" d="M-154.472,23.912a.484.484,0,0,1-.466.45.408.408,0,0,1-.4-.45.484.484,0,0,1,.466-.454A.408.408,0,0,1-154.472,23.912Z" transform="translate(155.341 -23.458)"/></g><g transform="translate(18.301)"><path class="g" d="M-148.17,23.912a.489.489,0,0,1-.47.45.4.4,0,0,1-.4-.45.488.488,0,0,1,.47-.454A.4.4,0,0,1-148.17,23.912Z" transform="translate(149.039 -23.458)"/></g><g transform="translate(19.096)"><path class="g" d="M-141.868,23.912a.493.493,0,0,1-.473.45.4.4,0,0,1-.395-.45.493.493,0,0,1,.474-.454A.4.4,0,0,1-141.868,23.912Z" transform="translate(142.738 -23.458)"/></g><g transform="translate(19.892)"><path class="g" d="M-135.567,23.912a.5.5,0,0,1-.477.45.4.4,0,0,1-.392-.45.5.5,0,0,1,.477-.454A.4.4,0,0,1-135.567,23.912Z" transform="translate(136.437 -23.458)"/></g><g transform="translate(20.687)"><path class="g" d="M-129.266,23.912a.5.5,0,0,1-.481.45.393.393,0,0,1-.388-.45.5.5,0,0,1,.481-.454A.393.393,0,0,1-129.266,23.912Z" transform="translate(130.136 -23.458)"/></g></g><g transform="translate(0.003 1.234)"><path class="b" d="M-297.469,20.915h22.513v.616h-22.51Z" transform="translate(297.469 -20.915)"/></g><g transform="translate(0.002 0.618)"><path class="b" d="M-297.482,16.035l.47.616h21.571l.474-.616Z" transform="translate(297.482 -16.035)"/><g class="c"><path d="M-297.482,16.035l.47.616h21.571l.474-.616Z" transform="translate(297.482 -16.035)"/></g></g><path class="b" d="M-297.495,11.139h22.519v.618h-22.516Z" transform="translate(297.495 -11.139)"/><g class="h" transform="translate(0.47 0.618)"><path class="b" d="M-293.768,16.035h21.574v.616h-21.571Z" transform="translate(293.768 -16.035)"/></g><g class="f" transform="translate(0.47 0.618)"><path class="e" d="M-293.768,16.035h21.574v.616h-21.571Z" transform="translate(293.768 -16.035)"/></g><g class="i" transform="translate(0.437 13.36)"><rect class="e" width="21.614" height="0.271"/></g><g class="f" transform="translate(0.482 26.828)"><rect class="e" width="21.568" height="0.27"/></g><g transform="translate(2.055 3.638)"><g transform="translate(2.863)"><rect class="e" width="2.672" height="2.886"/><rect class="e" width="2.672" height="2.886" transform="translate(5.132)"/><rect class="e" width="2.672" height="2.886" transform="translate(10.263)"/></g><g transform="translate(2.863 4.322)"><rect class="e" width="2.672" height="2.886"/><rect class="e" width="2.672" height="2.886" transform="translate(5.132)"/><rect class="e" width="2.672" height="2.886" transform="translate(10.263)"/></g><g transform="translate(0 25.269)"><g transform="translate(2.863)"><rect class="e" width="2.672" height="2.886"/><rect class="e" width="2.672" height="2.886" transform="translate(5.132)"/><rect class="e" width="2.672" height="2.886" transform="translate(10.263)"/></g><rect class="e" width="2.672" height="2.886" transform="translate(0 6.077)"/><rect class="e" width="2.672" height="2.886" transform="translate(15.699 6.077)"/></g><g transform="translate(2.863 12.267)"><rect class="e" width="2.672" height="2.886"/><rect class="e" width="2.672" height="2.886" transform="translate(5.132)"/><rect class="e" width="2.672" height="2.886" transform="translate(10.263)"/></g><g transform="translate(2.863 16.589)"><rect class="e" width="2.672" height="2.886"/><rect class="e" width="2.672" height="2.886" transform="translate(5.132)"/><rect class="e" width="2.672" height="2.886" transform="translate(10.263)"/></g></g><g transform="translate(6.896 33.655)"><g class="j" transform="translate(1.233 1.668)"><path class="e" d="M-233.071,290.994h2.765l-.011,2.871h-2.773Z" transform="translate(233.09 -290.994)"/></g><g class="j" transform="translate(4.521 1.668)"><path class="e" d="M-207.009,290.994h2.88l-.137,2.871h-2.773Z" transform="translate(207.039 -290.994)"/></g><g transform="translate(0.545 4.539)"><path class="b" d="M-231.216,314.321h-7.3l-.03-.579h7.354Z" transform="translate(238.543 -313.742)"/><g class="k"><path class="b" d="M-231.216,314.321h-7.3l-.03-.579h7.354Z" transform="translate(238.543 -313.742)"/></g></g><g transform="translate(0.285 5.159)"><path class="b" d="M-232.721,319.221h-7.849l-.031-.569h7.909Z" transform="translate(240.601 -318.652)"/></g><g class="c"><path class="e" d="M-234.432,278.432h-8.389l-.036-.651h8.458Z" transform="translate(242.857 -277.782)"/></g><g transform="translate(0.036 0.651)"><path class="l" d="M-242.572,282.936l1.216,1.017h6.179l.994-1.017Z" transform="translate(242.572 -282.936)"/></g><g transform="translate(0.605 1.049)"><path class="m" d="M-238.065,286.172l.429,3.412h.341l-.137-3.412h0a.686.686,0,0,0-.632,0Z" transform="translate(238.065 -286.095)"/></g><g transform="translate(7.214 1.031)"><path class="m" d="M-184.939,286.049l-.42,3.412h-.341l.128-3.412h0a.574.574,0,0,1,.632,0Z" transform="translate(185.7 -285.954)"/></g></g></g></g><g transform="translate(34.057 13.334)"><g transform="translate(0)"><g transform="translate(1.522 4.519)"><g transform="translate(0 1.914)"><path class="n" d="M-130.078,168.323a19.326,19.326,0,0,1-1.2,1.594c-.286.282-3.211.067-3.565-.081-.271-.114-.084-.465.044-.447a9.6,9.6,0,0,0,2.828-.485c.094-.041,1.012-1.156,1.012-1.156Z" transform="translate(134.985 -167.748)"/></g><g transform="translate(3.793)"><path class="b" d="M-104.931,154.468a4.237,4.237,0,0,1,2.045-1.867c.492-.064.658.033.513.429a9.312,9.312,0,0,1-1.33,2.235Z" transform="translate(104.931 -152.583)"/><g class="k"><path d="M-104.931,154.468a4.237,4.237,0,0,1,2.045-1.867c.492-.064.658.033.513.429a9.312,9.312,0,0,1-1.33,2.235Z" transform="translate(104.931 -152.583)"/></g></g></g><path class="b" d="M-96.505,148.79a7.573,7.573,0,0,1,.846-.254,11.141,11.141,0,0,1,1.591-.262,9.114,9.114,0,0,1,.939-.052.438.438,0,0,1,.095.01.472.472,0,0,1,.347.553,20,20,0,0,0-.476,5.45l-3.2.114a.171.171,0,0,1-.17-.144c-.142-.722-.585-2.327-.585-2.327a1.823,1.823,0,0,1-.506-1.134c-.022-.15.314-.312.678-1.108C-96.95,149.637-96.67,148.851-96.505,148.79Z" transform="translate(103.866 -144.254)"/><path class="o" d="M-81.666,168.877l-1.168.043a22.752,22.752,0,0,1-.081-3.995A39.744,39.744,0,0,0-81.666,168.877Z" transform="translate(91.051 -158.849)"/><g transform="translate(6.538 10.184)"><g transform="translate(0.876 0.084)"><path class="n" d="M-86,208.567c-.029-.064-.058-.131-.087-.2a53.712,53.712,0,0,1-2.223-9.094l2.247-1.146a88.905,88.905,0,0,0,1.515,8.828c.134.531.272,1.016.414,1.43l-1.533.7Z" transform="translate(88.305 -198.129)"/><g class="j"><path class="o" d="M-86,208.567c-.029-.064-.058-.131-.087-.2a53.712,53.712,0,0,1-2.223-9.094l2.247-1.146a88.905,88.905,0,0,0,1.515,8.828c.134.531.272,1.016.414,1.43l-1.533.7Z" transform="translate(88.305 -198.129)"/></g></g><g transform="translate(0.222 0.44)"><path class="n" d="M-92.668,200.951s-1.027,7.194-.784,10.137c.257,3.1,1.173,8.411,1.173,8.411l.758-.052a36.146,36.146,0,0,0-.187-8.315,35.945,35.945,0,0,0,1.93-10.067Z" transform="translate(93.489 -200.951)"/><path class="p" d="M-92.668,200.951s-1.027,7.194-.784,10.137c.257,3.1,1.173,8.411,1.173,8.411l.758-.052a36.146,36.146,0,0,0-.187-8.315,35.945,35.945,0,0,0,1.93-10.067Z" transform="translate(93.489 -200.951)"/></g><path class="o" d="M-92.958,345.121a.739.739,0,0,1,.085.325c.02.416.049,1.522.049,1.522l-.091.006s-.056-.542-.118-.814-.1-.037-.244.259a1.343,1.343,0,0,1-1.122.656c-.7.065-.98.051-.788-.143a2.033,2.033,0,0,1,.646-.342,4.167,4.167,0,0,0,.571-1.736c-.038-.746.823-.045.991-.15C-92.922,344.714-92.992,345.06-92.958,345.121Z" transform="translate(95.246 -325.948)"/><g transform="translate(0.059)"><path class="o" d="M-90.149,206.641a8,8,0,0,1-1.99.536l-.07.006c-.049.005-.1.009-.152.011a9.574,9.574,0,0,1-2.419-.259c.287-2.96.851-9.249.851-9.249l1.358-.165,1.75-.053s1.931,1.994,1.487,3.8C-90,203.978-89.664,204.4-90.149,206.641Z" transform="translate(94.779 -197.467)"/></g></g><path class="n" d="M-63.372,154.476a.437.437,0,0,1-.132-.358s0-.2-.007-.5a22.5,22.5,0,0,1,.075-2.886c.2-.507.547-.781.728-.485a15.927,15.927,0,0,1,.227,2.969C-62.53,154.949-63.165,154.718-63.372,154.476Z" transform="translate(74.059 -145.915)"/><g transform="translate(7.371 3.918)"><path class="b" d="M-85.748,147.821l-.106.191A4.859,4.859,0,0,1-87.58,149.8a1.37,1.37,0,0,0-.387-.516.81.81,0,0,0-.414.487,2.094,2.094,0,0,1-.209-1.489h0c.186-.057.385-.114.575-.161a11.58,11.58,0,0,1,1.591-.256A5.429,5.429,0,0,1-85.748,147.821Z" transform="translate(88.643 -147.821)"/><path class="q" d="M-85.511,147.821l-.106.191a4.859,4.859,0,0,1-1.726,1.791,4.785,4.785,0,0,1-.175-.548,1.019,1.019,0,0,0-.41.59,2.634,2.634,0,0,1-.425-1.56h0c.186-.057.385-.114.575-.161a11.58,11.58,0,0,1,1.591-.256A5.429,5.429,0,0,1-85.511,147.821Z" transform="translate(88.406 -147.821)"/></g><g transform="translate(6.508 6.75)"><path class="n" d="M-90.764,172.313l-.438-.595-.393.777a1.237,1.237,0,0,0,.734.149Z" transform="translate(92.086 -171.534)"/><path class="n" d="M-95.3,170.26l-.187.629.49.329.393-.774Z" transform="translate(95.483 -170.26)"/></g><g transform="translate(7.41 9.93)"><path class="r" d="M-85.045,195.876l-1.623.044-.136,0-.351.009-.135,0-.952.025c-.03,0-.056-.014-.057-.033l-.037-.305c0-.021.023-.039.056-.041l.942-.037.113,0,.465-.018.11,0,1.562-.062a.062.062,0,0,1,.056.024l.039.346C-84.979,195.849-85.007,195.874-85.045,195.876Z" transform="translate(88.335 -195.455)"/><path class="s" d="M-85.045,195.876l-1.623.044-.136,0-.351.009-.135,0-.952.025c-.03,0-.056-.014-.057-.033l-.037-.305c0-.021.023-.039.056-.041l.942-.037.113,0,.465-.018.11,0,1.562-.062a.062.062,0,0,1,.056.024l.039.346C-84.979,195.849-85.007,195.874-85.045,195.876Z" transform="translate(88.335 -195.455)"/></g><g transform="translate(7.854 9.955)"><path class="o" d="M-84.721,196.332l.1,0a.03.03,0,0,0,.035-.026l-.058-.433c0-.013-.02-.024-.042-.024l-.1,0a.029.029,0,0,0-.035.025l.058.434A.041.041,0,0,0-84.721,196.332Z" transform="translate(84.82 -195.822)"/><path class="o" d="M-70.386,196.135l.1,0a.028.028,0,0,0,.033-.024l-.058-.435c0-.012-.02-.023-.04-.022l-.1,0c-.02,0-.034.01-.033.024l.058.433C-70.423,196.126-70.406,196.135-70.386,196.135Z" transform="translate(72.293 -195.652)"/></g><g transform="translate(6.17 7.298)"><g transform="translate(1.779)"><path class="t" d="M-81.712,179.61l-.25-.089,1.124-3.361a.891.891,0,0,0-.551-1.277.949.949,0,0,0-1.287.626l-1.135,3.351-.249-.089,1.136-3.35c.21-.619.614-1.039,1.588-.7s.955.9.747,1.523Z" transform="translate(84.061 -174.601)"/></g><path class="u" d="M-93.941,192.867l-3.835-1.378a.592.592,0,0,1-.35-.75l.926-2.7a.6.6,0,0,1,.764-.377l3.587,1.275a.805.805,0,0,1,.486,1.01l-.847,2.559A.568.568,0,0,1-93.941,192.867Z" transform="translate(98.159 -185.981)"/><g class="v" transform="translate(1.779)"><path class="e" d="M-81.712,179.61l-.2.173-.053-.262,1.124-3.361a.891.891,0,0,0-.551-1.277.949.949,0,0,0-1.287.626l-1.135,3.351-.2.17-.045-.259,1.136-3.35c.21-.619.614-1.039,1.588-.7s.955.9.747,1.523Z" transform="translate(84.061 -174.601)"/></g><path class="b" d="M-80.892,196.17l-.411-.146.053-.155.41.146Z" transform="translate(83.43 -193.184)"/><path class="b" d="M-83.6,204.142-84.01,204l.053-.156.411.147Z" transform="translate(85.796 -200.149)"/><path class="b" d="M-64.19,202.118l-.412-.147.052-.156.412.147Z" transform="translate(68.838 -198.38)"/><path class="b" d="M-66.867,210.118l-.413-.148.052-.157.413.147Z" transform="translate(71.177 -205.37)"/><path class="e" d="M-73.89,198.224l-.881-.314.112-.332.881.314Z" transform="translate(77.723 -194.678)"/></g><path class="n" d="M-83.7,177.793c-.394.227-1.993-.03-3.344-.843-.064-.038-.13-.033-.151-.049-.084-.062.13-.2.256-.27.069-.036,3.052.341,3.258.37C-83.449,177.61-83.659,177.6-83.7,177.793Z" transform="translate(94.763 -169.076)"/><g transform="translate(9.637 15.782)"><path class="w" d="M-70.536,246.992a.954.954,0,0,0,1.455.508c.021-.016.041-.033.06-.05C-66.813,245.4-64,242.425-64,242.425l-.473-.6a31.217,31.217,0,0,0-4.676,3.313c-.509.434-1.028.907-1.539,1.412h0Z" transform="translate(70.692 -241.825)"/><path class="p" d="M-70.536,246.992a.954.954,0,0,0,1.455.508c.021-.016.041-.033.06-.05C-66.813,245.4-64,242.425-64,242.425l-.473-.6a31.217,31.217,0,0,0-4.676,3.313c-.509.434-1.028.907-1.539,1.412h0Z" transform="translate(70.692 -241.825)"/></g><path class="o" d="M-25.568,233.705a.649.649,0,0,1,.161-.268c.265-.276.982-.988.982-.988l.065.064s-.323.379-.462.6.044.1.334.019a1.32,1.32,0,0,1,1.183.424c.508.478.689.7.432.678a2.047,2.047,0,0,1-.658-.267,3.517,3.517,0,0,0-1.539.67c-.477.5-.58-.589-.762-.648C-25.866,233.934-25.586,233.768-25.568,233.705Z" transform="translate(41.134 -217.85)"/><g transform="translate(5.468)"><g transform="translate(0.553)"><path class="n" d="M-83.779,138.01a.751.751,0,0,1,.106,1.042.48.48,0,0,0-.1.307c.008.178.122.344.671-.036.8-.55.687-1.1.687-1.1-.445-.1-.768-1.006-.9-1.524Z" transform="translate(85.742 -134.183)"/><path class="x" d="M-83.309,141.191c.079.22-.132.593-.3.748a1.505,1.505,0,0,0-.162-.227l.27-.777A.792.792,0,0,1-83.309,141.191Z" transform="translate(85.736 -137.887)"/><path class="o" d="M-99.269,118.2a2.591,2.591,0,0,0,.686,2.349c.588-.645,1.7-.509,2.318-1.121a1.44,1.44,0,0,0,.234-1.618,1.936,1.936,0,0,0-1.729-1.017A1.917,1.917,0,0,0-99.269,118.2Z" transform="translate(99.335 -116.782)"/><path class="n" d="M-94.291,122.283a1.155,1.155,0,0,0-1.607-.3c-.746.5-.607,1.765-.275,2.48a1.084,1.084,0,0,0,1.934.048c.334-.521.263-.877.14-1.723A1.165,1.165,0,0,0-94.291,122.283Z" transform="translate(96.807 -121.147)"/><path class="y" d="M-92.7,136.457a.3.3,0,0,1-.251.005,1.86,1.86,0,0,0,.152-.486Z" transform="translate(93.76 -133.553)"/><path class="o" d="M-88.934,139.011a.021.021,0,0,0-.012-.027.02.02,0,0,0-.027.012.545.545,0,0,1-.394.3.021.021,0,0,0-.015.024h0a.019.019,0,0,0,.023.015.6.6,0,0,0,.1-.026A.579.579,0,0,0-88.934,139.011Z" transform="translate(90.638 -136.181)"/><g transform="translate(0.979 0.026)"><path class="o" d="M-91.452,117.41a.864.864,0,0,0-.125.353,3.1,3.1,0,0,1,1.992,2.243,8.514,8.514,0,0,0,.992-1.2,1.027,1.027,0,0,0-.53-1.275,8.1,8.1,0,0,0-1.249-.494A.931.931,0,0,0-91.452,117.41Z" transform="translate(91.577 -116.989)"/></g><path class="n" d="M-79.1,132.231a.28.28,0,0,0-.329-.219c-.208.046-.284.337-.272.524.017.206.177.348.354.22a.629.629,0,0,0,.246-.409A.282.282,0,0,0-79.1,132.231Z" transform="translate(82.184 -130.084)"/></g><g transform="translate(0.829 1.531)"><path class="o" d="M-89.208,132.249c.022.082,0,.161-.059.176s-.115-.04-.137-.124,0-.161.058-.176S-89.231,132.166-89.208,132.249Z" transform="translate(90.388 -131.718)"/><path class="o" d="M-95.173,134.387c.022.083,0,.162-.058.176s-.115-.04-.137-.124,0-.161.058-.176S-95.194,134.3-95.173,134.387Z" transform="translate(95.6 -133.586)"/><path class="o" d="M-96.135,134.239l-.213,0S-96.2,134.363-96.135,134.239Z" transform="translate(96.449 -133.564)"/><path class="o" d="M-89.783,129.072a.047.047,0,0,0,.016-.015.042.042,0,0,0-.012-.058h0a.485.485,0,0,0-.446-.053.043.043,0,0,0-.021.055.042.042,0,0,0,.054.021.407.407,0,0,1,.368.047A.042.042,0,0,0-89.783,129.072Z" transform="translate(91.121 -128.915)"/><path class="o" d="M-97.08,131.306a.048.048,0,0,0,.013-.018.41.41,0,0,1,.273-.251.042.042,0,0,0,.034-.049h0a.043.043,0,0,0-.05-.033.5.5,0,0,0-.335.3.042.042,0,0,0,.021.055.041.041,0,0,0,.044-.007Z" transform="translate(97.149 -130.696)"/><path class="o" d="M-90.175,132.1l-.213,0S-90.245,132.225-90.175,132.1Z" transform="translate(91.241 -131.696)"/></g><path class="o" d="M-102.936,121.507a2.582,2.582,0,0,0,.966,1.509c-.3.229-.843-.03-1.161-.233a1.343,1.343,0,0,1-.569-.94,2.274,2.274,0,0,1,.149-1.112,3.374,3.374,0,0,1,1.109-1.434c.1-.078.261-.14.324-.033.043.073-.006.165-.055.235A2.839,2.839,0,0,0-102.936,121.507Z" transform="translate(103.719 -118.9)"/><g transform="translate(1.501 0.769)"><path class="o" d="M-90.2,125.659h-.008a.032.032,0,0,1-.023-.038c.337-1.363-1.124-2.4-1.579-2.689a.032.032,0,0,1-.01-.044.032.032,0,0,1,.044-.01c.465.292,1.954,1.353,1.607,2.757A.031.031,0,0,1-90.2,125.659Z" transform="translate(91.827 -122.873)"/></g><path class="b" d="M-77.117,137.124l-.028.482.128.106.063-.148Z" transform="translate(80.499 -134.557)"/></g><g transform="translate(10.104 3.995)"><path class="b" d="M-66.121,148.45a.6.6,0,0,0-.57.159,1.149,1.149,0,0,0-.29.638,2.776,2.776,0,0,0,.144,1.086,3.708,3.708,0,0,1,.2,1.086,4.333,4.333,0,0,1,1.488-.687,4.808,4.808,0,0,0-.341-1.717,1.578,1.578,0,0,0-.342-.449A.791.791,0,0,0-66.121,148.45Z" transform="translate(66.994 -148.433)"/><g class="k"><path class="e" d="M-66.121,148.45a.6.6,0,0,0-.57.159,1.149,1.149,0,0,0-.29.638,2.776,2.776,0,0,0,.144,1.086,3.708,3.708,0,0,1,.2,1.086,4.333,4.333,0,0,1,1.488-.687,4.808,4.808,0,0,0-.341-1.717,1.578,1.578,0,0,0-.342-.449A.791.791,0,0,0-66.121,148.45Z" transform="translate(66.994 -148.433)"/></g></g><g transform="translate(0 7.981)"><path class="n" d="M-139.7,180.675a8.175,8.175,0,0,0-.965.2c-.012.043-.008.579-.008.579l.856-.324Z" transform="translate(141.476 -180.592)"/><path class="n" d="M-146.239,180.878l-.805-.759.36-.1.6.324Z" transform="translate(147.044 -180.015)"/></g></g></g><g transform="translate(0 9.165)"><g transform="translate(0)"><g transform="translate(2.481 12.421)"><path class="z" d="M-333.277,339.013l.9-.049.079,2.131-.9.049Z" transform="translate(341.348 -319.173)"/><path class="o" d="M-332.347,354.047a3.211,3.211,0,0,0,1.423.4c.163.017.217.392-.163.433s-1.043.1-1.317.131c-.448.048-.615.088-.968.132a.161.161,0,0,1-.176-.143l-.038-.81a.065.065,0,0,1,.06-.07l1.018-.111A.265.265,0,0,1-332.347,354.047Z" transform="translate(341.619 -332.317)"/><path class="x" d="M-333.238,340.12l.9-.049-.042-1.1-.9.049Z" transform="translate(341.349 -319.181)"/><path class="aa" d="M-323.255,353.725a.117.117,0,0,0,.014-.116.078.078,0,0,0-.057-.054c-.115-.031-.352.171-.379.2a.022.022,0,0,0,0,.022.023.023,0,0,0,.018.016,1.083,1.083,0,0,0,.244.005A.246.246,0,0,0-323.255,353.725Zm-.353.025c.1-.073.24-.171.3-.153a.037.037,0,0,1,.026.027.074.074,0,0,1-.007.077c-.038.048-.156.066-.322.051Z" transform="translate(332.964 -331.919)"/><path class="aa" d="M-323.742,352.474a.473.473,0,0,0,.168-.364.082.082,0,0,0-.084-.056.107.107,0,0,0-.087.039c-.082.1-.028.358-.03.368a.021.021,0,0,0,.012.016l.01,0Zm.08-.376c.031,0,.046.014.043.026a.425.425,0,0,1-.125.292.48.48,0,0,1,.028-.294.061.061,0,0,1,.044-.023Z" transform="translate(333.059 -330.611)"/><path class="z" d="M-394.118,331.863l.892.189-.65,2.019-.891-.189Z" transform="translate(395.077 -312.968)"/><path class="o" d="M-395.779,347.275a3.738,3.738,0,0,0,1.32.859c.151.068.085.44-.29.361s-1.114-.266-1.386-.323c-.44-.093-.611-.108-.961-.175h0a.161.161,0,0,1-.123-.192l.216-.783a.065.065,0,0,1,.079-.046l1,.212A.26.26,0,0,1-395.779,347.275Z" transform="translate(397.222 -326.171)"/><path class="x" d="M-392.277,332.912l.891.189.336-1.04-.892-.189Z" transform="translate(392.901 -312.976)"/><g transform="translate(0.237)"><path class="ab" d="M-344.741,182.161s.95,8.214,1.022,11.284c.066,2.828.019,9.088.019,9.088l1.637-.077s.683-5.816.878-8.666c.179-2.609-.38-10.957-.38-10.957Z" transform="translate(351.128 -182.161)"/><path class="x" d="M-341.65,205.431c.147,1.7.346,3.886.528,5.715a11.461,11.461,0,0,0,.157-5.353C-341.237,204.8-341.484,205.018-341.65,205.431Z" transform="translate(348.427 -202.19)"/><path class="o" d="M-338.615,339.857l2.116-.161-.1.7-1.781.147Z" transform="translate(345.775 -319.812)"/><path class="ab" d="M-390.356,184.683s-1.532,7.559-2.062,10.584c-.488,2.787-2.4,8.7-2.4,8.7l1.632.346a87.974,87.974,0,0,0,3.456-8.739c.685-2.521,2.4-10.248,2.4-10.248Z" transform="translate(394.886 -184.365)"/><path class="o" d="M-395.318,333.057l2.194.363-.229.6-1.991-.421Z" transform="translate(395.344 -314.011)"/></g><path class="aa" d="M-386.234,349a.117.117,0,0,0,.049-.109.079.079,0,0,0-.035-.069c-.1-.065-.389.054-.422.067a.026.026,0,0,0-.013.02.021.021,0,0,0,.013.019,1.132,1.132,0,0,0,.231.082A.253.253,0,0,0-386.234,349Zm-.338-.092c.117-.045.281-.088.329-.051a.039.039,0,0,1,.017.035.077.077,0,0,1-.03.071c-.051.032-.169.012-.321-.052Z" transform="translate(387.988 -327.767)"/><path class="aa" d="M-386.588,347.176c.1-.034.272-.192.272-.294a.082.082,0,0,0-.062-.079.106.106,0,0,0-.094.011c-.109.068-.141.328-.143.339a.019.019,0,0,0,.007.018.019.019,0,0,0,.01,0A.018.018,0,0,0-386.588,347.176Zm.2-.335c.03.011.036.027.033.039,0,.067-.119.189-.21.238a.475.475,0,0,1,.118-.271.065.065,0,0,1,.049-.009Z" transform="translate(387.954 -326.017)"/></g><g transform="translate(0 13.283)"><g transform="translate(3.972)"><path class="ac" d="M-385.12,190.137a2.37,2.37,0,0,0,.375-.691c.09-.168-.118-.1.09-.08a.96.96,0,0,1,.221.077c.18.069.353.154.534.219.156.055.435.03.567.107.215.126.009.682-.036.862-.054.217.278.33.332.111.077-.313.277-.872.036-1.166-.15-.182-.381-.146-.588-.186-.392-.077-.794-.434-1.206-.392a.311.311,0,0,0-.279.2c-.065.144-.027.3-.113.456a1.024,1.024,0,0,1-.165.216c-.159.159.071.423.231.264Z" transform="translate(385.405 -188.995)"/><g class="v"><path d="M-385.12,190.137a2.37,2.37,0,0,0,.375-.691c.09-.168-.118-.1.09-.08a.96.96,0,0,1,.221.077c.18.069.353.154.534.219.156.055.435.03.567.107.215.126.009.682-.036.862-.054.217.278.33.332.111.077-.313.277-.872.036-1.166-.15-.182-.381-.146-.588-.186-.392-.077-.794-.434-1.206-.392a.311.311,0,0,0-.279.2c-.065.144-.027.3-.113.456a1.024,1.024,0,0,1-.165.216c-.159.159.071.423.231.264Z" transform="translate(385.405 -188.995)"/></g></g><g transform="translate(0 0.121)"><path class="b" d="M1.717,0H5.756A1.717,1.717,0,0,1,7.473,1.717v0A2.959,2.959,0,0,1,4.515,4.676H2.959A2.959,2.959,0,0,1,0,1.717v0A1.717,1.717,0,0,1,1.717,0Z" transform="translate(1.486 0) rotate(18.525)"/><path class="ad" d="M1.717,0H5.756A1.717,1.717,0,0,1,7.473,1.717v0A2.959,2.959,0,0,1,4.515,4.676H2.959A2.959,2.959,0,0,1,0,1.717v0A1.717,1.717,0,0,1,1.717,0Z" transform="translate(1.486 0) rotate(18.525)"/><path class="ae" d="M-401.01,196.081l-6.369-2.134a.378.378,0,0,0-.479.239l-.044.132a1.066,1.066,0,0,0,.672,1.349l5.065,1.7a1.066,1.066,0,0,0,1.349-.672l.044-.132A.378.378,0,0,0-401.01,196.081Z" transform="translate(409.083 -193.425)"/><path class="aa" d="M-399.9,192.9l-6.369-2.134a.378.378,0,0,0-.479.238l-.044.132a1.066,1.066,0,0,0,.672,1.349l5.065,1.7a1.066,1.066,0,0,0,1.349-.672l.044-.132A.378.378,0,0,0-399.9,192.9Z" transform="translate(408.111 -190.646)"/><g transform="translate(1.266 0.101)"><path class="b" d="M-399.9,192.9l-6.369-2.134a.378.378,0,0,0-.479.238l-.044.132a1.066,1.066,0,0,0,.672,1.349l5.065,1.7a1.066,1.066,0,0,0,1.349-.672l.044-.132A.378.378,0,0,0-399.9,192.9Z" transform="translate(406.846 -190.747)"/><path class="af" d="M-399.9,192.9l-6.369-2.134a.378.378,0,0,0-.479.238l-.044.132a1.066,1.066,0,0,0,.672,1.349l5.065,1.7a1.066,1.066,0,0,0,1.349-.672l.044-.132A.378.378,0,0,0-399.9,192.9Z" transform="translate(406.846 -190.747)"/></g><rect class="aa" width="0.715" height="1.502" rx="0.357" transform="translate(2.679 1.396) rotate(18.524)"/><path class="aa" d="M.357,0h0A.357.357,0,0,1,.715.357v.788A.357.357,0,0,1,.357,1.5h0A.357.357,0,0,1,0,1.145V.357A.357.357,0,0,1,.357,0Z" transform="matrix(0.948, 0.318, -0.318, 0.948, 6.109, 2.545)"/><rect class="e" width="0.715" height="1.502" rx="0.357" transform="translate(2.679 1.396) rotate(18.524)"/><path class="e" d="M.357,0h0A.357.357,0,0,1,.715.357v.788A.357.357,0,0,1,.357,1.5h0A.357.357,0,0,1,0,1.145V.357A.357.357,0,0,1,.357,0Z" transform="matrix(0.948, 0.318, -0.318, 0.948, 6.109, 2.545)"/></g></g><g transform="translate(4.638)"><g transform="translate(7.357 5.84)"><path class="l" d="M-320.4,130.454c.057.112.128.246.194.369s.139.249.211.373c.145.246.292.489.449.719a7.305,7.305,0,0,0,.49.643,2.173,2.173,0,0,0,.5.443l.026.016h.011l.031.007a.492.492,0,0,0,.2-.048,2.445,2.445,0,0,0,.6-.4,6.113,6.113,0,0,0,.6-.579c.1-.106.192-.211.284-.32s.186-.226.268-.327l.016-.02a.49.49,0,0,1,.681-.133.491.491,0,0,1,.134.679,7.923,7.923,0,0,1-1.136,1.581,3.63,3.63,0,0,1-.856.679,1.853,1.853,0,0,1-.657.219,1.409,1.409,0,0,1-.42-.013,1.3,1.3,0,0,1-.214-.057.488.488,0,0,1-.1-.04l-.075-.035a3.434,3.434,0,0,1-.913-.687,6.7,6.7,0,0,1-.653-.764c-.195-.261-.375-.526-.543-.8-.088-.135-.167-.268-.245-.41s-.153-.273-.232-.431a.761.761,0,0,1,.334-1.022.761.761,0,0,1,1.023.335h0Z" transform="translate(321.844 -130.019)"/><path class="z" d="M-277.783,139.011l.715.26-.05-.836s-.744-.263-.843.132v.183A.275.275,0,0,0-277.783,139.011Z" transform="translate(283.499 -137.298)"/><path class="z" d="M-270.5,139.139l.151-.714-.937.076.05.836Z" transform="translate(277.664 -137.364)"/></g><path class="ag" d="M-318.994,138.891c-.084-.1-.164-.192-.243-.29a7.965,7.965,0,0,1-.659-.99,10.408,10.408,0,0,1-.517-1.039c-.022-.05-.042-.1-.062-.151.383-.229,1.2-.116,1.46.946A3.953,3.953,0,0,1-318.994,138.891Z" transform="translate(328.005 -129.687)"/><path class="e" d="M-354.694,131.4l-4.76-1.008c.056-.433.444-1.8.747-3.576a28.7,28.7,0,0,0,.327-3.706s0-.007,0-.011a.583.583,0,0,1,.615-.549l.01,0c.3.019.666.052,1.023.109a18.323,18.323,0,0,1,2.026.429,5.446,5.446,0,0,1,.643.255.886.886,0,0,1,.531.735C-353.448,125.119-353.488,127.155-354.694,131.4Z" transform="translate(362.065 -117.65)"/><path class="b" d="M-330.98,130.248l-.136.273a.115.115,0,0,1-.1.076l-.236-.02c-.034,0-.062-.03-.074-.074l-.1-.327.353-.22Z" transform="translate(337.749 -124.123)"/><path class="l" d="M-359.082,121.945c-.376-.06-.767-.1-1.079-.115l-.01,0h-.018a.612.612,0,0,0-.632.591,30.29,30.29,0,0,1-.343,3.907c-.462,3.319-.921,3.979-.921,3.979l2.124.4a49.5,49.5,0,0,0,1.085-8.733Z" transform="translate(364.364 -117.021)"/><path class="ag" d="M-354.221,132.622c.154-1.071.221-2.177.255-2.984a.216.216,0,0,1,.033-.03c.267-.227.932.318.751,1.335A2.08,2.08,0,0,1-354.221,132.622Z" transform="translate(357.491 -123.775)"/><path class="l" d="M-327.779,135.309l-1.283-.343c.805-5.649.993-7.15.813-8.732a9.213,9.213,0,0,1,.938.3,1.033,1.033,0,0,1,.578.838C-326.625,128.257-327.3,130.519-327.779,135.309Z" transform="translate(335.508 -120.871)"/><path class="o" d="M-331.652,179.488a.27.27,0,0,1,.363.121h0a.272.272,0,0,1-.121.365.272.272,0,0,1-.365-.121.272.272,0,0,1,.121-.365Z" transform="translate(337.903 -167.379)"/><path class="e" d="M-332.119,179.58a.317.317,0,0,1,.137-.427h0a.312.312,0,0,1,.242-.018.316.316,0,0,1,.217.376.316.316,0,0,1-.381.234A.317.317,0,0,1-332.119,179.58Z" transform="translate(338.21 -167.082)"/><path class="z" d="M-337.254,108.6a1.5,1.5,0,0,1-1.253-.836c.534-.347.616-1.572.6-2.256l.447.564.608.769a2.59,2.59,0,0,0-.11.289.762.762,0,0,0,.461,1.042S-336.388,108.729-337.254,108.6Z" transform="translate(343.761 -102.76)"/><path class="e" d="M-340.077,122.1l.333-.049a3.128,3.128,0,0,0,1.042.989,1.206,1.206,0,0,0-.546.441A1.383,1.383,0,0,1-340.077,122.1Z" transform="translate(345.141 -117.22)"/><path class="e" d="M-328.285,125.321l-.276-.122s-.243.575-.558.6c.475.311.507.584.507.584C-327.816,126.3-328.285,125.321-328.285,125.321Z" transform="translate(335.558 -119.968)"/><path class="x" d="M-330.354,112.558l-.583-.732a1.354,1.354,0,0,0-.048.283.965.965,0,0,0,.546.773Z" transform="translate(337.189 -108.283)"/><path class="o" d="M-321.854,95.123s.031.455.505.281c.02-.484.179-.447.343-.731a1.05,1.05,0,0,0,.063-1.075l-.3-.152C-322.421,93.082-321.854,95.123-321.854,95.123Z" transform="translate(329.329 -92.185)"/><path class="ah" d="M-321.854,95.123s.031.455.505.281c.02-.484.179-.447.343-.731a1.05,1.05,0,0,0,.063-1.075l-.3-.152C-322.421,93.082-321.854,95.123-321.854,95.123Z" transform="translate(329.329 -92.185)"/><path class="z" d="M-334.156,89.714a1.193,1.193,0,0,1,1.684-.1c.734.622.476,1.948.063,2.665a1.177,1.177,0,0,1-.505.485,1.178,1.178,0,0,1-1.58-.528c-.3-.589-.142-1.094.061-1.978A1.192,1.192,0,0,1-334.156,89.714Z" transform="translate(340.401 -88.613)"/><path class="o" d="M-337.4,92.437a.353.353,0,0,0,.548.183c-.075-.424.087-.413.193-.681a.861.861,0,0,0-.145-.952l-.325-.095C-338.669,90.745-337.4,92.437-337.4,92.437Z" transform="translate(343.222 -89.983)"/><path class="ah" d="M-337.4,92.437a.353.353,0,0,0,.548.183c-.075-.424.087-.413.193-.681a.861.861,0,0,0-.145-.952l-.325-.095C-338.669,90.745-337.4,92.437-337.4,92.437Z" transform="translate(343.222 -89.983)"/><g transform="translate(5.023)"><path class="o" d="M-338,83.782a.479.479,0,0,0-.475.085c-.084.073-.167.186-.277.164a.409.409,0,0,1-.144-.088.526.526,0,0,0-.606.061,1.808,1.808,0,0,0-.394.516,1.19,1.19,0,0,1-.438.473,1.382,1.382,0,0,0,1.126.028.739.739,0,0,1-.394.247,1.528,1.528,0,0,0,1.073-.087,2.3,2.3,0,0,1,.567-.255c.205-.035.459.076.478.283a.2.2,0,0,1,.28-.1.553.553,0,0,1,.22.25.655.655,0,0,0,.208.261.213.213,0,0,0,.3-.056.314.314,0,0,1-.289-.291.541.541,0,0,0,.365.059c-.165-.011-.486-.6-.536-.754a.754.754,0,0,0-.261-.41c-.153-.105-.308.078-.454,0S-337.84,83.844-338,83.782Z" transform="translate(340.337 -83.752)"/><g transform="translate(1.922 2.824)"><path class="o" d="M-324.906,106.523a.579.579,0,0,1-.206-.393l.257.1c.107.042.415.172.347.342S-324.823,106.59-324.906,106.523Z" transform="translate(325.112 -106.13)"/><path class="o" d="M-320.143,109.275a.579.579,0,0,0,.406-.179l-.264-.081c-.11-.034-.432-.124-.484.051S-320.25,109.276-320.143,109.275Z" transform="translate(321.074 -108.604)"/></g></g><path class="ai" d="M-320.5,104.509a.416.416,0,0,0,.348.046,2.7,2.7,0,0,1-.156-.714Z" transform="translate(328.03 -101.306)"/><path class="z" d="M-335.931,98.255c.215.073.3.432.289.657-.011.252-.177.407-.362.249a.85.85,0,0,1-.26-.509C-336.3,98.407-336.146,98.183-335.931,98.255Z" transform="translate(341.806 -96.413)"/><path class="o" d="M-323.157,101.495c.046.016.064.092.044.156s-.073.108-.119.094-.06-.083-.045-.155S-323.2,101.479-323.157,101.495Z" transform="translate(330.457 -99.252)"/><path class="o" d="M-316.862,103.231c.046.016.066.084.045.155s-.075.117-.12.1-.065-.085-.044-.156S-316.907,103.215-316.862,103.231Z" transform="translate(324.96 -100.77)"/><path class="o" d="M-324.437,109.816a.022.022,0,0,0,.025-.018.023.023,0,0,0-.018-.025.605.605,0,0,1-.443-.3.021.021,0,0,0-.029-.01.021.021,0,0,0-.01.029.628.628,0,0,0,.392.3C-324.493,109.805-324.464,109.808-324.437,109.816Z" transform="translate(331.883 -106.217)"/><path class="o" d="M-316.209,100.483a.046.046,0,0,0,.027.031.366.366,0,0,1,.233.218.042.042,0,0,0,.051.03h0a.044.044,0,0,0,.03-.053h0a.447.447,0,0,0-.288-.276.044.044,0,0,0-.055.027A.054.054,0,0,0-316.209,100.483Z" transform="translate(324.279 -98.326)"/><path class="o" d="M-323.6,98.355a.045.045,0,0,0,.04.008.366.366,0,0,1,.318.028.042.042,0,0,0,.059-.008v0a.044.044,0,0,0-.009-.06h0a.447.447,0,0,0-.4-.041.044.044,0,0,0-.026.055A.054.054,0,0,0-323.6,98.355Z" transform="translate(330.748 -96.423)"/><g transform="translate(0 12.897)"><path class="z" d="M-379.805,185.95l-.164-.018c-.386.186.033.9.033.9l1.136-.139-.329-.386A1.049,1.049,0,0,0-379.805,185.95Z" transform="translate(380.133 -185.932)"/><path class="z" d="M-377.425,192.443l-.037-.491-1.136.139.064.582a.172.172,0,0,0,0,.025.173.173,0,0,0,.211.123l.765-.2A.172.172,0,0,0-377.425,192.443Z" transform="translate(378.793 -191.192)"/></g><path class="b" d="M-333.041,139.279s-.4.95-.569.819a4.47,4.47,0,0,1-.577-.873c0-.025.493-4.349.493-4.349l.236.02C-333.555,135.381-333.041,139.279-333.041,139.279Z" transform="translate(339.986 -128.423)"/></g><path class="l" d="M-380.164,126.242c-.471.675-.585,3.843-.461,4.658a.618.618,0,0,1,.809-.1,30.934,30.934,0,0,1,.658-3.383,1,1,0,0,1,.387-.581,10.851,10.851,0,0,0,2.507-2.267c.269-.76.038-2.31-.631-1.833A31.117,31.117,0,0,0-380.164,126.242Z" transform="translate(385.241 -117.736)"/></g></g></g></g></svg>