<svg xmlns="http://www.w3.org/2000/svg" width="120" height="120" viewBox="0 0 120 120"><defs><style>.a,.ad,.af,.ah,.e,.q{fill:#fff;}.a{stroke:#ddd;}.b{fill:#ff6e39;}.c{opacity:0.4;}.d{fill:#acacac;}.f,.j,.p,.q{opacity:0.8;}.g{fill:#f0f0f0;}.ag,.h,.j,.p,.w,.x{isolation:isolate;}.i{opacity:0.7;}.k{opacity:0.1;}.l{fill:#383838;}.m{fill:#ff9a76;}.n,.w{fill:#ffb573;}.o,.p{fill:#263238;}.r,.s{fill:#f84808;}.ae,.s,.x{opacity:0.2;}.t{fill:#ddd;}.u{fill:#ffa381;}.ad,.ag,.v{opacity:0.3;}.y{fill:#ed893e;}.z{fill:#f7978d;}.aa{fill:#407bff;}.ab{fill:#262626;}.ac{fill:#222;}.af{opacity:0.5;}.ah{opacity:0.6;}.ai{fill:#ff5652;}.aj{stroke:none;}.ak{fill:none;}</style></defs><g transform="translate(-360 -776)"><g class="a" transform="translate(360 776)"><circle class="aj" cx="60" cy="60" r="60"/><circle class="ak" cx="60" cy="60" r="59.5"/></g><g transform="translate(797.875 802.698)"><g transform="translate(-394.273 -0.698)"><g transform="translate(0)"><g transform="translate(0.007 2.775)"><path class="b" d="M-297.456,25.794l.705.912H-264.4l.711-.912Z" transform="translate(297.456 -25.794)"/><g class="c"><path d="M-297.456,25.794l.705.912H-264.4l.711-.912Z" transform="translate(297.456 -25.794)"/></g></g><g transform="translate(0.647 1.598)"><rect class="d" width="32.423" height="57.475"/><g class="c"><rect class="e" width="32.423" height="57.475"/></g></g><g class="f" transform="translate(0.655 2.332)"><path class="g" d="M-292.73,24.139a.588.588,0,0,1-.581.675.756.756,0,0,1-.722-.675.588.588,0,0,1,.58-.681A.756.756,0,0,1-292.73,24.139Z" transform="translate(294.036 -23.458)"/><g transform="translate(1.194)"><path class="g" d="M-286.423,24.139a.593.593,0,0,1-.586.675.749.749,0,0,1-.716-.675.594.594,0,0,1,.586-.681A.749.749,0,0,1-286.423,24.139Z" transform="translate(287.729 -23.458)"/></g><g transform="translate(2.388)"><path class="g" d="M-280.118,24.139a.6.6,0,0,1-.592.675.741.741,0,0,1-.711-.675.6.6,0,0,1,.591-.681A.741.741,0,0,1-280.118,24.139Z" transform="translate(281.423 -23.458)"/></g><g transform="translate(3.582)"><path class="g" d="M-273.811,24.139a.6.6,0,0,1-.6.675.734.734,0,0,1-.705-.675.6.6,0,0,1,.6-.681A.734.734,0,0,1-273.811,24.139Z" transform="translate(275.117 -23.458)"/></g><g transform="translate(4.776)"><path class="g" d="M-267.506,24.139a.61.61,0,0,1-.6.675.727.727,0,0,1-.7-.675.61.61,0,0,1,.6-.681A.727.727,0,0,1-267.506,24.139Z" transform="translate(268.81 -23.458)"/></g><g transform="translate(5.97)"><path class="g" d="M-261.2,24.139a.616.616,0,0,1-.608.675.72.72,0,0,1-.695-.675.616.616,0,0,1,.607-.681A.719.719,0,0,1-261.2,24.139Z" transform="translate(262.505 -23.458)"/></g><g transform="translate(7.164)"><path class="g" d="M-254.9,24.139a.622.622,0,0,1-.613.675.712.712,0,0,1-.689-.675.622.622,0,0,1,.613-.681A.713.713,0,0,1-254.9,24.139Z" transform="translate(256.199 -23.458)"/></g><g transform="translate(8.357)"><path class="g" d="M-248.59,24.139a.627.627,0,0,1-.619.675.705.705,0,0,1-.684-.675.628.628,0,0,1,.618-.681A.705.705,0,0,1-248.59,24.139Z" transform="translate(249.893 -23.458)"/></g><g transform="translate(9.551)"><path class="g" d="M-242.286,24.139a.633.633,0,0,1-.624.675.7.7,0,0,1-.679-.675.634.634,0,0,1,.624-.681A.7.7,0,0,1-242.286,24.139Z" transform="translate(243.589 -23.458)"/></g><g transform="translate(10.745)"><path class="g" d="M-235.981,24.139a.64.64,0,0,1-.629.675.692.692,0,0,1-.673-.675.64.64,0,0,1,.629-.681A.692.692,0,0,1-235.981,24.139Z" transform="translate(237.284 -23.458)"/></g><g transform="translate(11.938)"><path class="g" d="M-229.676,24.139a.646.646,0,0,1-.635.675.685.685,0,0,1-.668-.675.646.646,0,0,1,.634-.681A.685.685,0,0,1-229.676,24.139Z" transform="translate(230.979 -23.458)"/></g><g transform="translate(13.132)"><path class="g" d="M-223.371,24.139a.652.652,0,0,1-.64.675.678.678,0,0,1-.662-.675.652.652,0,0,1,.64-.681A.679.679,0,0,1-223.371,24.139Z" transform="translate(224.674 -23.458)"/></g><g transform="translate(14.325)"><path class="g" d="M-217.068,24.139a.658.658,0,0,1-.645.675.672.672,0,0,1-.657-.675.658.658,0,0,1,.645-.681A.672.672,0,0,1-217.068,24.139Z" transform="translate(218.37 -23.458)"/></g><g transform="translate(15.519)"><path class="g" d="M-210.763,24.139a.665.665,0,0,1-.651.675.666.666,0,0,1-.652-.675.665.665,0,0,1,.651-.681A.666.666,0,0,1-210.763,24.139Z" transform="translate(212.066 -23.458)"/></g><g transform="translate(16.712)"><path class="g" d="M-204.46,24.139a.671.671,0,0,1-.656.675.659.659,0,0,1-.646-.675.671.671,0,0,1,.656-.681A.659.659,0,0,1-204.46,24.139Z" transform="translate(205.762 -23.458)"/></g><g transform="translate(17.906)"><path class="g" d="M-198.157,24.139a.677.677,0,0,1-.661.675.653.653,0,0,1-.641-.675.678.678,0,0,1,.662-.681A.653.653,0,0,1-198.157,24.139Z" transform="translate(199.459 -23.458)"/></g><g transform="translate(19.099)"><path class="g" d="M-191.853,24.139a.684.684,0,0,1-.667.675.647.647,0,0,1-.636-.675.684.684,0,0,1,.667-.681A.647.647,0,0,1-191.853,24.139Z" transform="translate(193.156 -23.458)"/></g><g transform="translate(20.293)"><path class="g" d="M-185.55,24.139a.691.691,0,0,1-.672.675.64.64,0,0,1-.63-.675.691.691,0,0,1,.672-.681A.641.641,0,0,1-185.55,24.139Z" transform="translate(186.852 -23.458)"/></g><g transform="translate(21.486)"><path class="g" d="M-179.247,24.139a.7.7,0,0,1-.678.675.635.635,0,0,1-.625-.675.7.7,0,0,1,.678-.681A.635.635,0,0,1-179.247,24.139Z" transform="translate(180.55 -23.458)"/></g><g transform="translate(22.679)"><path class="g" d="M-172.944,24.139a.7.7,0,0,1-.683.675.629.629,0,0,1-.619-.675.7.7,0,0,1,.683-.681A.629.629,0,0,1-172.944,24.139Z" transform="translate(174.247 -23.458)"/></g><g transform="translate(23.872)"><path class="g" d="M-166.642,24.139a.711.711,0,0,1-.688.675.623.623,0,0,1-.614-.675.711.711,0,0,1,.689-.681A.623.623,0,0,1-166.642,24.139Z" transform="translate(167.945 -23.458)"/></g><g transform="translate(25.065)"><path class="g" d="M-160.339,24.139a.718.718,0,0,1-.694.675.617.617,0,0,1-.609-.675.718.718,0,0,1,.694-.681A.617.617,0,0,1-160.339,24.139Z" transform="translate(161.643 -23.458)"/></g><g transform="translate(26.258)"><path class="g" d="M-154.037,24.139a.726.726,0,0,1-.7.675.611.611,0,0,1-.6-.675.725.725,0,0,1,.7-.681A.612.612,0,0,1-154.037,24.139Z" transform="translate(155.341 -23.458)"/></g><g transform="translate(27.451)"><path class="g" d="M-147.735,24.139a.733.733,0,0,1-.7.675.605.605,0,0,1-.6-.675.733.733,0,0,1,.705-.681A.606.606,0,0,1-147.735,24.139Z" transform="translate(149.039 -23.458)"/></g><g transform="translate(28.644)"><path class="g" d="M-141.433,24.139a.74.74,0,0,1-.71.675.6.6,0,0,1-.592-.675.74.74,0,0,1,.71-.681A.6.6,0,0,1-141.433,24.139Z" transform="translate(142.738 -23.458)"/></g><g transform="translate(29.837)"><path class="g" d="M-135.132,24.139a.747.747,0,0,1-.715.675.6.6,0,0,1-.587-.675.747.747,0,0,1,.716-.681A.6.6,0,0,1-135.132,24.139Z" transform="translate(136.437 -23.458)"/></g><g transform="translate(31.03)"><path class="g" d="M-128.83,24.139a.755.755,0,0,1-.721.675.589.589,0,0,1-.582-.675.755.755,0,0,1,.721-.681A.59.59,0,0,1-128.83,24.139Z" transform="translate(130.136 -23.458)"/></g></g><g transform="translate(0.005 1.851)"><path class="b" d="M-297.469,20.915H-263.7l0,.924h-33.765Z" transform="translate(297.469 -20.915)"/></g><g transform="translate(0.003 0.927)"><path class="b" d="M-297.482,16.035l.705.924h32.357l.712-.924Z" transform="translate(297.482 -16.035)"/><g class="c"><path d="M-297.482,16.035l.705.924h32.357l.712-.924Z" transform="translate(297.482 -16.035)"/></g></g><path class="b" d="M-297.495,11.139h33.778l0,.927h-33.774Z" transform="translate(297.495 -11.139)"/><g class="h" transform="translate(0.706 0.927)"><path class="b" d="M-293.768,16.035h32.361l0,.924h-32.357Z" transform="translate(293.768 -16.035)"/></g><g class="f" transform="translate(0.706 0.927)"><path class="e" d="M-293.768,16.035h32.361l0,.924h-32.357Z" transform="translate(293.768 -16.035)"/></g><g class="i" transform="translate(0.656 20.04)"><rect class="e" width="32.421" height="0.407"/></g><g class="f" transform="translate(0.723 40.241)"><rect class="e" width="32.352" height="0.405"/></g><g transform="translate(3.082 5.457)"><g transform="translate(4.294)"><rect class="e" width="4.008" height="4.329"/><rect class="e" width="4.008" height="4.329" transform="translate(7.697)"/><rect class="e" width="4.008" height="4.329" transform="translate(15.395)"/></g><g transform="translate(4.294 6.483)"><rect class="e" width="4.008" height="4.329"/><rect class="e" width="4.008" height="4.329" transform="translate(7.697)"/><rect class="e" width="4.008" height="4.329" transform="translate(15.395)"/></g><g transform="translate(0 37.903)"><g transform="translate(4.294)"><rect class="e" width="4.008" height="4.329"/><rect class="e" width="4.008" height="4.329" transform="translate(7.697)"/><rect class="e" width="4.008" height="4.329" transform="translate(15.395)"/></g><rect class="e" width="4.008" height="4.329" transform="translate(0 9.116)"/><rect class="e" width="4.008" height="4.329" transform="translate(23.548 9.116)"/></g><g transform="translate(4.294 18.401)"><rect class="e" width="4.008" height="4.329"/><rect class="e" width="4.008" height="4.329" transform="translate(7.697)"/><rect class="e" width="4.008" height="4.329" transform="translate(15.395)"/></g><g transform="translate(4.294 24.884)"><rect class="e" width="4.008" height="4.329"/><rect class="e" width="4.008" height="4.329" transform="translate(7.697)"/><rect class="e" width="4.008" height="4.329" transform="translate(15.395)"/></g></g><g transform="translate(10.344 50.482)"><g class="j" transform="translate(1.849 2.501)"><path class="e" d="M-233.062,290.994h4.148l-.016,4.307h-4.16Z" transform="translate(233.09 -290.994)"/></g><g class="j" transform="translate(6.781 2.501)"><path class="e" d="M-206.994,290.994h4.32l-.2,4.307h-4.16Z" transform="translate(207.039 -290.994)"/></g><g transform="translate(0.817 6.808)"><path class="b" d="M-227.553,314.61H-238.5l-.045-.868h11.03Z" transform="translate(238.543 -313.742)"/><g class="k"><path class="b" d="M-227.553,314.61H-238.5l-.045-.868h11.03Z" transform="translate(238.543 -313.742)"/></g></g><g transform="translate(0.427 7.738)"><path class="b" d="M-228.781,319.506h-11.773l-.047-.854h11.864Z" transform="translate(240.601 -318.652)"/></g><g class="c"><path class="e" d="M-230.22,278.757H-242.8l-.054-.976h12.687Z" transform="translate(242.857 -277.782)"/></g><g transform="translate(0.054 0.976)"><path class="l" d="M-242.572,282.936l1.823,1.526h9.269l1.491-1.526Z" transform="translate(242.572 -282.936)"/></g><g transform="translate(0.907 1.574)"><path class="m" d="M-238.065,286.211l.643,5.118h.511l-.206-5.118h0a1.029,1.029,0,0,0-.949,0Z" transform="translate(238.065 -286.095)"/></g><g transform="translate(10.821 1.547)"><path class="m" d="M-184.559,286.1l-.63,5.118h-.511l.193-5.118h0a.86.86,0,0,1,.949,0Z" transform="translate(185.7 -285.954)"/></g></g></g></g><g transform="translate(-365.789 19.303)"><g transform="translate(0)"><g transform="translate(2.283 6.778)"><g transform="translate(0 2.871)"><path class="n" d="M-127.624,168.61A28.99,28.99,0,0,1-129.429,171c-.428.423-4.817.1-5.347-.122-.407-.171-.126-.7.066-.671a14.4,14.4,0,0,0,4.243-.727c.141-.062,1.517-1.733,1.517-1.733Z" transform="translate(134.985 -167.748)"/></g><g transform="translate(5.69)"><path class="b" d="M-104.931,155.41a6.356,6.356,0,0,1,3.068-2.8c.738-.1.986.05.77.644a13.969,13.969,0,0,1-2,3.353Z" transform="translate(104.931 -152.583)"/><g class="k"><path d="M-104.931,155.41a6.356,6.356,0,0,1,3.068-2.8c.738-.1.986.05.77.644a13.969,13.969,0,0,1-2,3.353Z" transform="translate(104.931 -152.583)"/></g></g></g><path class="b" d="M-95.944,149.075a11.362,11.362,0,0,1,1.269-.381,16.714,16.714,0,0,1,2.387-.393,13.671,13.671,0,0,1,1.409-.078.656.656,0,0,1,.142.016.708.708,0,0,1,.521.83,30,30,0,0,0-.714,8.175l-4.8.172a.257.257,0,0,1-.255-.215c-.212-1.084-.878-3.491-.878-3.491a2.735,2.735,0,0,1-.759-1.7c-.033-.225.471-.469,1.017-1.662C-96.611,150.345-96.19,149.165-95.944,149.075Z" transform="translate(106.984 -142.27)"/><path class="o" d="M-81.017,170.853l-1.752.064a34.129,34.129,0,0,1-.121-5.992A59.614,59.614,0,0,0-81.017,170.853Z" transform="translate(95.095 -155.81)"/><g transform="translate(9.807 15.276)"><g transform="translate(1.314 0.125)"><path class="n" d="M-84.841,213.786c-.044-.1-.088-.2-.13-.3-1.889-4.515-3.335-13.641-3.335-13.641l3.371-1.719a133.359,133.359,0,0,0,2.272,13.242c.2.8.408,1.523.621,2.145l-2.3,1.057Z" transform="translate(88.305 -198.129)"/><g class="j"><path class="o" d="M-84.841,213.786c-.044-.1-.088-.2-.13-.3-1.889-4.515-3.335-13.641-3.335-13.641l3.371-1.719a133.359,133.359,0,0,0,2.272,13.242c.2.8.408,1.523.621,2.145l-2.3,1.057Z" transform="translate(88.305 -198.129)"/></g></g><g transform="translate(0.333 0.66)"><path class="n" d="M-92.257,200.951s-1.541,10.791-1.176,15.206c.385,4.651,1.76,12.616,1.76,12.616l1.137-.077a54.219,54.219,0,0,0-.281-12.473c2.6-6.7,2.895-15.1,2.895-15.1Z" transform="translate(93.489 -200.951)"/><path class="p" d="M-92.257,200.951s-1.541,10.791-1.176,15.206c.385,4.651,1.76,12.616,1.76,12.616l1.137-.077a54.219,54.219,0,0,0-.281-12.473c2.6-6.7,2.895-15.1,2.895-15.1Z" transform="translate(93.489 -200.951)"/></g><path class="o" d="M-91.815,345.428a1.108,1.108,0,0,1,.128.488c.03.624.074,2.283.074,2.283l-.137.009s-.084-.813-.177-1.221-.157-.056-.365.388a2.014,2.014,0,0,1-1.683.984c-1.044.1-1.47.077-1.183-.214a3.049,3.049,0,0,1,.969-.513,6.25,6.25,0,0,0,.856-2.6c-.057-1.119,1.235-.068,1.486-.225C-91.76,344.818-91.865,345.337-91.815,345.428Z" transform="translate(95.246 -316.669)"/><g transform="translate(0.088)"><path class="o" d="M-87.834,211.228a11.993,11.993,0,0,1-2.985.8l-.1.009c-.073.008-.149.013-.228.017a14.362,14.362,0,0,1-3.628-.389c.43-4.44,1.276-13.874,1.276-13.874l2.038-.248,2.625-.08s2.9,2.992,2.231,5.705C-87.605,207.233-87.107,207.864-87.834,211.228Z" transform="translate(94.779 -197.467)"/></g></g><path class="n" d="M-63.3,156.653a.656.656,0,0,1-.2-.538s-.005-.3-.01-.753a33.758,33.758,0,0,1,.113-4.329c.3-.76.821-1.171,1.092-.727.317.519.34,4.454.34,4.454C-62.037,157.362-62.99,157.016-63.3,156.653Z" transform="translate(79.33 -143.811)"/><g transform="translate(11.057 5.876)"><path class="b" d="M-84.3,147.821l-.159.287a7.288,7.288,0,0,1-2.59,2.687,2.055,2.055,0,0,0-.581-.774,1.215,1.215,0,0,0-.621.731,3.141,3.141,0,0,1-.314-2.233h0c.28-.085.578-.171.863-.242a17.368,17.368,0,0,1,2.387-.383A8.143,8.143,0,0,1-84.3,147.821Z" transform="translate(88.643 -147.821)"/><path class="q" d="M-84.08,147.821l-.159.287a7.288,7.288,0,0,1-2.59,2.687,7.176,7.176,0,0,1-.263-.821,1.529,1.529,0,0,0-.615.885,3.951,3.951,0,0,1-.638-2.341h0c.28-.085.578-.171.863-.242a17.369,17.369,0,0,1,2.387-.383A8.144,8.144,0,0,1-84.08,147.821Z" transform="translate(88.423 -147.821)"/></g><g transform="translate(9.762 10.125)"><path class="n" d="M-90.348,172.61l-.658-.892-.589,1.166a1.856,1.856,0,0,0,1.1.223Z" transform="translate(92.331 -171.442)"/><path class="n" d="M-95.2,170.26l-.28.943.735.493.59-1.16Z" transform="translate(95.483 -170.26)"/></g><g transform="translate(11.115 14.895)"><path class="r" d="M-83.4,196.086l-2.434.065-.2,0-.526.013-.2.006-1.428.037c-.044,0-.083-.021-.085-.05l-.056-.458c0-.031.034-.059.084-.061l1.413-.056.17-.007.7-.027.165-.007,2.343-.092a.093.093,0,0,1,.085.036l.058.52C-83.3,196.046-83.342,196.084-83.4,196.086Z" transform="translate(88.335 -195.455)"/><path class="s" d="M-83.4,196.086l-2.434.065-.2,0-.526.013-.2.006-1.428.037c-.044,0-.083-.021-.085-.05l-.056-.458c0-.031.034-.059.084-.061l1.413-.056.17-.007.7-.027.165-.007,2.343-.092a.093.093,0,0,1,.085.036l.058.52C-83.3,196.046-83.342,196.084-83.4,196.086Z" transform="translate(88.335 -195.455)"/></g><g transform="translate(11.78 14.932)"><path class="o" d="M-84.671,196.574l.156,0a.044.044,0,0,0,.053-.039l-.087-.649c0-.019-.03-.036-.062-.036l-.156,0a.044.044,0,0,0-.053.038l.087.651A.062.062,0,0,0-84.671,196.574Z" transform="translate(84.82 -195.81)"/><path class="o" d="M-70.337,196.377l.148,0a.041.041,0,0,0,.05-.036l-.087-.652c0-.018-.03-.034-.059-.033l-.148,0c-.03,0-.051.016-.05.036l.087.649C-70.393,196.363-70.367,196.377-70.337,196.377Z" transform="translate(73.198 -195.652)"/></g><g transform="translate(9.255 10.947)"><g transform="translate(2.669)"><path class="t" d="M-80.537,182.115l-.375-.134,1.686-5.042a1.336,1.336,0,0,0-.827-1.916,1.424,1.424,0,0,0-1.931.939l-1.7,5.027-.374-.134,1.7-5.024c.315-.929.921-1.559,2.382-1.043s1.432,1.352,1.121,2.284Z" transform="translate(84.061 -174.601)"/></g><path class="u" d="M-91.832,195.489l-5.752-2.067a.888.888,0,0,1-.526-1.126l1.389-4.055a.9.9,0,0,1,1.146-.565l5.38,1.912a1.208,1.208,0,0,1,.729,1.516l-1.27,3.838A.851.851,0,0,1-91.832,195.489Z" transform="translate(98.159 -185.159)"/><g class="v" transform="translate(2.669)"><path class="e" d="M-80.537,182.115l-.3.259-.079-.394,1.686-5.042a1.336,1.336,0,0,0-.827-1.916,1.424,1.424,0,0,0-1.931.939l-1.7,5.027-.306.255-.068-.389,1.7-5.024c.315-.929.921-1.559,2.382-1.043s1.432,1.352,1.121,2.284Z" transform="translate(84.061 -174.601)"/></g><path class="b" d="M-80.687,196.321l-.616-.219.079-.233.616.219Z" transform="translate(84.494 -191.842)"/><path class="b" d="M-83.393,204.294l-.617-.22.079-.234.617.22Z" transform="translate(86.689 -198.304)"/><path class="b" d="M-63.984,202.269l-.618-.22.078-.234.618.22Z" transform="translate(70.955 -196.663)"/><path class="b" d="M-66.66,210.27l-.619-.221.079-.235.619.221Z" transform="translate(73.126 -203.147)"/><path class="e" d="M-73.45,198.548l-1.322-.471.168-.5,1.321.47Z" transform="translate(79.199 -193.228)"/></g><path class="n" d="M-81.941,178.375c-.591.34-2.989-.044-5.017-1.264-.1-.058-.2-.05-.226-.073-.126-.094.2-.307.385-.4.1-.054,4.579.511,4.887.555C-81.568,178.1-81.883,178.088-81.941,178.375Z" transform="translate(98.539 -165.299)"/><g transform="translate(14.455 23.674)"><path class="w" d="M-70.459,249.576a1.431,1.431,0,0,0,2.183.762c.032-.024.062-.049.09-.075,3.312-3.067,7.526-7.537,7.526-7.537l-.71-.9a46.825,46.825,0,0,0-7.014,4.969c-.763.651-1.542,1.36-2.308,2.118v0Z" transform="translate(70.692 -241.825)"/><path class="p" d="M-70.459,249.576a1.431,1.431,0,0,0,2.183.762c.032-.024.062-.049.09-.075,3.312-3.067,7.526-7.537,7.526-7.537l-.71-.9a46.825,46.825,0,0,0-7.014,4.969c-.763.651-1.542,1.36-2.308,2.118v0Z" transform="translate(70.692 -241.825)"/></g><path class="o" d="M-25.434,234.333a.973.973,0,0,1,.242-.4c.4-.414,1.472-1.482,1.472-1.482l.1.1s-.484.569-.693.893.067.152.5.029a1.98,1.98,0,0,1,1.774.636c.762.717,1.034,1.048.649,1.017a3.07,3.07,0,0,1-.988-.4,5.275,5.275,0,0,0-2.309,1c-.715.755-.87-.884-1.143-.973C-25.881,234.677-25.462,234.428-25.434,234.333Z" transform="translate(48.783 -210.55)"/><g transform="translate(8.203)"><g transform="translate(0.83)"><path class="n" d="M-83.779,138.666a1.127,1.127,0,0,1,.159,1.562.719.719,0,0,0-.155.461c.012.267.183.516,1.007-.055,1.193-.825,1.031-1.652,1.031-1.652-.667-.155-1.152-1.509-1.356-2.285Z" transform="translate(86.724 -132.927)"/><path class="x" d="M-83.077,141.319c.119.33-.2.89-.452,1.122a2.258,2.258,0,0,0-.243-.34l.406-1.166A1.188,1.188,0,0,1-83.077,141.319Z" transform="translate(86.718 -136.362)"/><path class="o" d="M-99.236,118.907a3.886,3.886,0,0,0,1.03,3.523c.882-.967,2.549-.764,3.477-1.681a2.161,2.161,0,0,0,.351-2.428,2.9,2.9,0,0,0-2.594-1.526A2.875,2.875,0,0,0-99.236,118.907Z" transform="translate(99.335 -116.782)"/><path class="n" d="M-93.215,122.536a1.733,1.733,0,0,0-2.411-.456c-1.12.755-.911,2.647-.412,3.719a1.626,1.626,0,0,0,2.9.072c.5-.781.395-1.316.209-2.585A1.748,1.748,0,0,0-93.215,122.536Z" transform="translate(96.989 -120.832)"/><path class="y" d="M-92.578,136.7a.448.448,0,0,1-.377.008,2.789,2.789,0,0,0,.228-.729Z" transform="translate(94.163 -132.342)"/><path class="o" d="M-88.71,139.025a.031.031,0,0,0-.017-.04.031.031,0,0,0-.04.017.817.817,0,0,1-.591.455.032.032,0,0,0-.023.036v0a.029.029,0,0,0,.034.022.9.9,0,0,0,.143-.039A.868.868,0,0,0-88.71,139.025Z" transform="translate(91.266 -134.779)"/><g transform="translate(1.469 0.039)"><path class="o" d="M-91.389,117.621a1.3,1.3,0,0,0-.188.529,4.657,4.657,0,0,1,2.988,3.364,12.773,12.773,0,0,0,1.488-1.8A1.54,1.54,0,0,0-87.9,117.8a12.152,12.152,0,0,0-1.874-.74A1.4,1.4,0,0,0-91.389,117.621Z" transform="translate(91.577 -116.989)"/></g><path class="n" d="M-78.8,132.343a.419.419,0,0,0-.494-.329c-.312.07-.426.506-.407.786.025.309.266.523.532.33a.944.944,0,0,0,.368-.614A.423.423,0,0,0-78.8,132.343Z" transform="translate(83.423 -129.124)"/></g><g transform="translate(1.244 2.297)"><path class="o" d="M-89.107,132.313c.033.124-.006.242-.088.265s-.173-.061-.2-.186.006-.242.086-.264S-89.141,132.187-89.107,132.313Z" transform="translate(90.876 -131.516)"/><path class="o" d="M-95.071,134.45c.033.124-.006.242-.087.264s-.173-.061-.206-.186.006-.242.087-.264S-95.1,134.324-95.071,134.45Z" transform="translate(95.712 -133.249)"/><path class="o" d="M-96.028,134.241l-.32-.006S-96.133,134.426-96.028,134.241Z" transform="translate(96.5 -133.228)"/><path class="o" d="M-89.55,129.151a.07.07,0,0,0,.024-.022.063.063,0,0,0-.018-.087h0a.728.728,0,0,0-.669-.08.065.065,0,0,0-.031.083.062.062,0,0,0,.081.032.61.61,0,0,1,.553.071A.062.062,0,0,0-89.55,129.151Z" transform="translate(91.556 -128.915)"/><path class="o" d="M-97.046,131.482a.072.072,0,0,0,.019-.027.615.615,0,0,1,.41-.377.063.063,0,0,0,.05-.073h0a.064.064,0,0,0-.075-.049.743.743,0,0,0-.5.454.063.063,0,0,0,.031.083.062.062,0,0,0,.067-.01Z" transform="translate(97.149 -130.568)"/><path class="o" d="M-90.068,132.1l-.32-.005S-90.173,132.289-90.068,132.1Z" transform="translate(91.668 -131.495)"/></g><path class="o" d="M-102.544,122.658a3.873,3.873,0,0,0,1.449,2.263c-.453.343-1.264-.045-1.742-.349a2.014,2.014,0,0,1-.853-1.411,3.411,3.411,0,0,1,.223-1.668,5.061,5.061,0,0,1,1.664-2.151c.145-.116.392-.21.486-.05.065.11-.009.247-.082.353A4.258,4.258,0,0,0-102.544,122.658Z" transform="translate(103.719 -118.747)"/><g transform="translate(2.251 1.153)"><path class="o" d="M-89.39,127.052H-89.4a.048.048,0,0,1-.035-.057c.505-2.044-1.686-3.6-2.369-4.033a.048.048,0,0,1-.015-.065.048.048,0,0,1,.065-.015c.7.438,2.931,2.03,2.411,4.136A.047.047,0,0,1-89.39,127.052Z" transform="translate(91.827 -122.873)"/></g><path class="b" d="M-77.1,137.124l-.042.722.192.158.095-.222Z" transform="translate(82.176 -133.273)"/></g><g transform="translate(15.155 5.992)"><path class="b" d="M-65.685,148.459a.892.892,0,0,0-.855.239,1.723,1.723,0,0,0-.435.957,4.164,4.164,0,0,0,.216,1.629,5.562,5.562,0,0,1,.3,1.629,6.5,6.5,0,0,1,2.233-1.03,7.211,7.211,0,0,0-.512-2.576,2.366,2.366,0,0,0-.513-.674A1.186,1.186,0,0,0-65.685,148.459Z" transform="translate(66.994 -148.433)"/><g class="k"><path class="e" d="M-65.685,148.459a.892.892,0,0,0-.855.239,1.723,1.723,0,0,0-.435.957,4.164,4.164,0,0,0,.216,1.629,5.562,5.562,0,0,1,.3,1.629,6.5,6.5,0,0,1,2.233-1.03,7.211,7.211,0,0,0-.512-2.576,2.366,2.366,0,0,0-.513-.674A1.186,1.186,0,0,0-65.685,148.459Z" transform="translate(66.994 -148.433)"/></g></g><g transform="translate(0 11.972)"><path class="n" d="M-139.211,180.675a12.263,12.263,0,0,0-1.448.3c-.018.065-.012.869-.012.869l1.284-.486Z" transform="translate(141.878 -180.55)"/><path class="n" d="M-145.836,181.31l-1.208-1.138.54-.157.9.486Z" transform="translate(147.044 -180.015)"/></g></g></g><g transform="translate(-416.875 13.049)"><g transform="translate(0)"><g transform="translate(3.721 18.631)"><path class="z" d="M-333.277,339.038l1.349-.074.119,3.2-1.349.074Z" transform="translate(345.383 -309.278)"/><path class="o" d="M-331.727,354.067a4.817,4.817,0,0,0,2.135.6c.245.025.326.588-.245.649s-1.564.152-1.976.2c-.671.072-.922.132-1.453.2a.241.241,0,0,1-.264-.215l-.057-1.215a.1.1,0,0,1,.09-.1l1.526-.167A.4.4,0,0,1-331.727,354.067Z" transform="translate(345.635 -321.472)"/><path class="x" d="M-333.218,340.694l1.351-.073-.062-1.647-1.349.074Z" transform="translate(345.385 -309.285)"/><path class="aa" d="M-323.042,353.812a.175.175,0,0,0,.021-.174.118.118,0,0,0-.085-.081c-.172-.047-.528.257-.568.293a.033.033,0,0,0-.007.032.035.035,0,0,0,.027.024,1.625,1.625,0,0,0,.367.008A.37.37,0,0,0-323.042,353.812Zm-.53.038c.145-.109.36-.256.453-.229a.056.056,0,0,1,.04.041.11.11,0,0,1-.01.116c-.056.072-.234.1-.483.076Z" transform="translate(337.605 -321.103)"/><path class="aa" d="M-323.718,352.684a.709.709,0,0,0,.251-.546.123.123,0,0,0-.125-.084.16.16,0,0,0-.13.058c-.123.147-.042.536-.045.552a.032.032,0,0,0,.018.024l.015,0Zm.119-.565c.047,0,.069.022.065.039a.638.638,0,0,1-.187.438.72.72,0,0,1,.042-.442.091.091,0,0,1,.066-.034Z" transform="translate(337.693 -319.889)"/><path class="z" d="M-393.793,331.863l1.338.283-.975,3.028-1.336-.283Z" transform="translate(395.232 -303.521)"/><path class="o" d="M-395.058,347.425a5.608,5.608,0,0,0,1.98,1.288c.227.1.127.66-.435.541s-1.671-.4-2.079-.485c-.661-.14-.917-.162-1.441-.262h0a.242.242,0,0,1-.184-.288l.324-1.174a.1.1,0,0,1,.118-.07l1.5.318A.389.389,0,0,1-395.058,347.425Z" transform="translate(397.222 -315.77)"/><path class="x" d="M-392.277,333.432l1.336.283.5-1.56-1.338-.283Z" transform="translate(393.213 -303.528)"/><g transform="translate(0.355)"><path class="ab" d="M-344.741,182.161s1.425,12.32,1.533,16.926c.1,4.242.029,13.632.029,13.632l2.456-.115s1.024-8.724,1.318-13c.269-3.914-.569-16.435-.569-16.435Z" transform="translate(354.321 -182.161)"/><path class="x" d="M-341.65,205.605c.221,2.549.519,5.829.792,8.572a17.191,17.191,0,0,0,.235-8.03C-341.031,204.658-341.4,204.986-341.65,205.605Z" transform="translate(351.816 -200.744)"/><path class="o" d="M-338.615,339.937l3.175-.242-.146,1.044-2.671.221Z" transform="translate(349.355 -309.871)"/><path class="ab" d="M-388.125,184.683s-2.3,11.339-3.093,15.876c-.731,4.181-3.6,13.046-3.6,13.046l2.449.518s4.059-8.968,5.184-13.108c1.028-3.782,3.6-15.372,3.6-15.372Z" transform="translate(394.919 -184.206)"/><path class="o" d="M-395.305,333.057l3.291.545-.344.9-2.986-.632Z" transform="translate(395.344 -304.488)"/></g><path class="aa" d="M-386.023,349.1a.175.175,0,0,0,.074-.163.119.119,0,0,0-.053-.1c-.149-.1-.584.08-.633.1a.039.039,0,0,0-.019.03.031.031,0,0,0,.019.029,1.7,1.7,0,0,0,.346.123A.38.38,0,0,0-386.023,349.1Zm-.507-.138c.175-.067.421-.133.493-.076a.059.059,0,0,1,.025.052.115.115,0,0,1-.046.106c-.076.048-.254.018-.482-.079Z" transform="translate(388.655 -317.251)"/><path class="aa" d="M-386.574,347.366c.147-.051.408-.287.408-.441a.122.122,0,0,0-.093-.118.16.16,0,0,0-.141.017c-.163.1-.211.492-.215.509a.028.028,0,0,0,.01.027.028.028,0,0,0,.015,0A.027.027,0,0,0-386.574,347.366Zm.3-.5c.045.017.054.04.05.059,0,.1-.178.284-.315.357a.712.712,0,0,1,.177-.406.1.1,0,0,1,.074-.013Z" transform="translate(388.623 -315.627)"/></g><g transform="translate(0 19.925)"><g transform="translate(5.958)"><path class="ac" d="M-384.978,190.708a3.553,3.553,0,0,0,.563-1.036c.135-.252-.176-.154.135-.121a1.441,1.441,0,0,1,.332.116c.269.1.529.232.8.328.233.083.652.045.85.16.323.189.013,1.023-.054,1.292-.08.326.417.5.5.167.116-.469.416-1.307.054-1.748-.225-.273-.571-.219-.882-.279-.588-.115-1.19-.651-1.808-.588a.466.466,0,0,0-.418.3c-.1.216-.04.456-.169.683a1.533,1.533,0,0,1-.247.325c-.239.238.106.634.346.4Z" transform="translate(385.405 -188.995)"/><g class="v"><path d="M-384.978,190.708a3.553,3.553,0,0,0,.563-1.036c.135-.252-.176-.154.135-.121a1.441,1.441,0,0,1,.332.116c.269.1.529.232.8.328.233.083.652.045.85.16.323.189.013,1.023-.054,1.292-.08.326.417.5.5.167.116-.469.416-1.307.054-1.748-.225-.273-.571-.219-.882-.279-.588-.115-1.19-.651-1.808-.588a.466.466,0,0,0-.418.3c-.1.216-.04.456-.169.683a1.533,1.533,0,0,1-.247.325c-.239.238.106.634.346.4Z" transform="translate(385.405 -188.995)"/></g></g><g transform="translate(0 0.181)"><path class="b" d="M2.576,0H8.634A2.576,2.576,0,0,1,11.21,2.576v0A4.438,4.438,0,0,1,6.772,7.014H4.438A4.438,4.438,0,0,1,0,2.576v0A2.576,2.576,0,0,1,2.576,0Z" transform="translate(2.229 0) rotate(18.525)"/><path class="ad" d="M2.576,0H8.634A2.576,2.576,0,0,1,11.21,2.576v0A4.438,4.438,0,0,1,6.772,7.014H4.438A4.438,4.438,0,0,1,0,2.576v0A2.576,2.576,0,0,1,2.576,0Z" transform="translate(2.229 0) rotate(18.525)"/><path class="ae" d="M-397.537,197.158l-9.553-3.2a.567.567,0,0,0-.718.358l-.066.2a1.6,1.6,0,0,0,1.008,2.023l7.6,2.546a1.6,1.6,0,0,0,2.023-1.008l.066-.2A.567.567,0,0,0-397.537,197.158Z" transform="translate(409.646 -193.174)"/><path class="aa" d="M-396.425,193.977l-9.553-3.2a.567.567,0,0,0-.718.358l-.066.2a1.6,1.6,0,0,0,1.008,2.023l7.6,2.546a1.6,1.6,0,0,0,2.023-1.008l.066-.2A.567.567,0,0,0-396.425,193.977Z" transform="translate(408.744 -190.596)"/><g transform="translate(1.899 0.151)"><path class="b" d="M-396.425,193.977l-9.553-3.2a.567.567,0,0,0-.718.358l-.066.2a1.6,1.6,0,0,0,1.008,2.023l7.6,2.546a1.6,1.6,0,0,0,2.023-1.008l.066-.2A.567.567,0,0,0-396.425,193.977Z" transform="translate(406.846 -190.747)"/><path class="af" d="M-396.425,193.977l-9.553-3.2a.567.567,0,0,0-.718.358l-.066.2a1.6,1.6,0,0,0,1.008,2.023l7.6,2.546a1.6,1.6,0,0,0,2.023-1.008l.066-.2A.567.567,0,0,0-396.425,193.977Z" transform="translate(406.846 -190.747)"/></g><rect class="aa" width="1.072" height="2.254" rx="0.536" transform="translate(4.019 2.094) rotate(18.524)"/><path class="aa" d="M.536,0h0a.536.536,0,0,1,.536.536V1.718a.536.536,0,0,1-.536.536h0A.536.536,0,0,1,0,1.718V.536A.536.536,0,0,1,.536,0Z" transform="matrix(0.948, 0.318, -0.318, 0.948, 9.164, 3.818)"/><rect class="e" width="1.072" height="2.254" rx="0.536" transform="translate(4.019 2.094) rotate(18.524)"/><path class="e" d="M.536,0h0a.536.536,0,0,1,.536.536V1.718a.536.536,0,0,1-.536.536h0A.536.536,0,0,1,0,1.718V.536A.536.536,0,0,1,.536,0Z" transform="matrix(0.948, 0.318, -0.318, 0.948, 9.164, 3.818)"/></g></g><g transform="translate(6.956)"><g transform="translate(11.036 8.759)"><path class="l" d="M-319.682,130.672c.085.168.192.369.291.554s.209.374.316.559c.217.369.438.733.674,1.078a10.955,10.955,0,0,0,.735.964,3.26,3.26,0,0,0,.743.665l.039.024.008,0,.008,0,.047.01a.737.737,0,0,0,.305-.072,3.667,3.667,0,0,0,.893-.6,9.169,9.169,0,0,0,.893-.869c.144-.158.289-.316.426-.481s.28-.339.4-.491l.024-.03a.736.736,0,0,1,1.021-.2.736.736,0,0,1,.2,1.019,11.884,11.884,0,0,1-1.7,2.371,5.444,5.444,0,0,1-1.284,1.018,2.779,2.779,0,0,1-.986.329,2.114,2.114,0,0,1-.629-.02,1.954,1.954,0,0,1-.321-.085.731.731,0,0,1-.15-.06l-.113-.052a5.152,5.152,0,0,1-1.369-1.03,10.053,10.053,0,0,1-.979-1.146c-.292-.392-.563-.789-.815-1.2-.132-.2-.25-.4-.367-.615s-.229-.41-.348-.646a1.141,1.141,0,0,1,.5-1.534,1.141,1.141,0,0,1,1.534.5h0Z" transform="translate(321.844 -130.019)"/><path class="z" d="M-277.694,139.342l1.073.39-.075-1.253s-1.116-.4-1.264.2v.274A.413.413,0,0,0-277.694,139.342Z" transform="translate(286.268 -136.772)"/><path class="z" d="M-270.1,139.5l.227-1.071-1.405.115.075,1.254Z" transform="translate(280.854 -136.833)"/></g><path class="ag" d="M-318.254,140.175c-.127-.145-.246-.288-.364-.434a11.946,11.946,0,0,1-.989-1.484,15.615,15.615,0,0,1-.775-1.559c-.033-.075-.063-.151-.093-.227.575-.343,1.794-.174,2.19,1.418A5.929,5.929,0,0,1-318.254,140.175Z" transform="translate(331.77 -126.37)"/><path class="e" d="M-352.314,135.822l-7.141-1.512c.084-.649.665-2.7,1.121-5.364a43.048,43.048,0,0,0,.49-5.559c0-.005,0-.011,0-.016a.875.875,0,0,1,.923-.824l.015,0c.445.028,1,.077,1.535.164a27.487,27.487,0,0,1,3.039.643,8.169,8.169,0,0,1,.965.383,1.329,1.329,0,0,1,.8,1.1C-350.444,126.406-350.5,129.46-352.314,135.822Z" transform="translate(363.37 -115.202)"/><path class="b" d="M-330.656,130.394l-.2.409a.173.173,0,0,1-.157.114l-.354-.03c-.051,0-.093-.045-.112-.112l-.144-.49.53-.329Z" transform="translate(340.81 -121.208)"/><path class="l" d="M-357.579,122c-.564-.091-1.15-.143-1.619-.173l-.015,0h-.027a.918.918,0,0,0-.949.887,45.438,45.438,0,0,1-.515,5.861c-.694,4.978-1.381,5.968-1.381,5.968l3.187.6a74.249,74.249,0,0,0,1.627-13.1Z" transform="translate(365.503 -114.618)"/><path class="ag" d="M-354.221,134.154c.231-1.607.332-3.266.383-4.476a.324.324,0,0,1,.049-.045c.4-.341,1.4.477,1.126,2A3.119,3.119,0,0,1-354.221,134.154Z" transform="translate(359.127 -120.884)"/><path class="l" d="M-327.138,139.846l-1.924-.515c1.208-8.473,1.49-10.725,1.219-13.1a13.818,13.818,0,0,1,1.406.452,1.55,1.55,0,0,1,.867,1.256C-325.407,129.27-326.414,132.662-327.138,139.846Z" transform="translate(338.731 -118.19)"/><path class="o" d="M-331.576,179.5a.406.406,0,0,1,.545.181h0a.408.408,0,0,1-.181.547.408.408,0,0,1-.547-.181.407.407,0,0,1,.181-.547Z" transform="translate(340.953 -161.339)"/><path class="e" d="M-332.1,179.811a.476.476,0,0,1,.206-.64h0a.467.467,0,0,1,.363-.027.474.474,0,0,1,.325.564.474.474,0,0,1-.571.352A.476.476,0,0,1-332.1,179.811Z" transform="translate(341.238 -161.064)"/><path class="z" d="M-336.627,110.144a2.243,2.243,0,0,1-1.88-1.254c.8-.521.924-2.357.906-3.384l.67.846.913,1.153a3.881,3.881,0,0,0-.165.434,1.142,1.142,0,0,0,.692,1.562S-335.328,110.341-336.627,110.144Z" transform="translate(346.388 -101.388)"/><path class="e" d="M-340.072,122.127l.5-.073a4.692,4.692,0,0,0,1.563,1.484,1.809,1.809,0,0,0-.819.661A2.075,2.075,0,0,1-340.072,122.127Z" transform="translate(347.669 -114.803)"/><path class="e" d="M-327.868,125.381l-.414-.182s-.365.863-.837.9c.713.466.76.876.76.876C-327.165,126.846-327.868,125.381-327.868,125.381Z" transform="translate(338.777 -117.352)"/><path class="x" d="M-330.038,112.925l-.874-1.1a2.034,2.034,0,0,0-.072.424,1.448,1.448,0,0,0,.819,1.16Z" transform="translate(340.29 -106.511)"/><path class="o" d="M-321.786,95.984s.047.682.758.421c.031-.727.269-.671.515-1.1a1.575,1.575,0,0,0,.095-1.612l-.452-.228C-322.636,92.921-321.786,95.984-321.786,95.984Z" transform="translate(332.998 -91.576)"/><path class="ah" d="M-321.786,95.984s.047.682.758.421c.031-.727.269-.671.515-1.1a1.575,1.575,0,0,0,.095-1.612l-.452-.228C-322.636,92.921-321.786,95.984-321.786,95.984Z" transform="translate(332.998 -91.576)"/><path class="z" d="M-333.9,89.913a1.789,1.789,0,0,1,2.526-.144c1.1.934.713,2.922.094,4a1.765,1.765,0,0,1-.758.728,1.766,1.766,0,0,1-2.37-.791c-.455-.883-.212-1.641.092-2.967A1.788,1.788,0,0,1-333.9,89.913Z" transform="translate(343.271 -88.262)"/><path class="o" d="M-337.152,93.214a.53.53,0,0,0,.822.274c-.112-.637.131-.62.29-1.022a1.292,1.292,0,0,0-.218-1.427l-.487-.142C-339.058,90.676-337.152,93.214-337.152,93.214Z" transform="translate(345.888 -89.533)"/><path class="ah" d="M-337.152,93.214a.53.53,0,0,0,.822.274c-.112-.637.131-.62.29-1.022a1.292,1.292,0,0,0-.218-1.427l-.487-.142C-339.058,90.676-337.152,93.214-337.152,93.214Z" transform="translate(345.888 -89.533)"/><g transform="translate(7.534)"><path class="o" d="M-336.838,83.8a.719.719,0,0,0-.712.127c-.126.11-.251.278-.415.245a.614.614,0,0,1-.215-.133.789.789,0,0,0-.909.091,2.713,2.713,0,0,0-.591.774,1.785,1.785,0,0,1-.657.709,2.073,2.073,0,0,0,1.69.041,1.108,1.108,0,0,1-.592.371,2.292,2.292,0,0,0,1.61-.13,3.443,3.443,0,0,1,.851-.382c.308-.053.689.114.717.425a.3.3,0,0,1,.419-.146.83.83,0,0,1,.33.374.984.984,0,0,0,.312.392.319.319,0,0,0,.443-.084.472.472,0,0,1-.434-.436.812.812,0,0,0,.547.088c-.247-.016-.73-.9-.8-1.132a1.13,1.13,0,0,0-.392-.615c-.23-.158-.462.117-.68,0S-336.592,83.89-336.838,83.8Z" transform="translate(340.337 -83.752)"/><g transform="translate(2.882 4.237)"><path class="o" d="M-324.8,106.719a.869.869,0,0,1-.309-.589l.385.151c.16.063.623.257.52.512C-324.3,107.033-324.679,106.821-324.8,106.719Z" transform="translate(325.112 -106.13)"/><path class="o" d="M-319.969,109.431a.869.869,0,0,0,.609-.268l-.4-.121c-.165-.051-.648-.187-.726.077C-320.556,109.366-320.13,109.434-319.969,109.431Z" transform="translate(321.366 -108.425)"/></g></g><path class="ai" d="M-320.5,104.842a.625.625,0,0,0,.522.069,4.053,4.053,0,0,1-.235-1.071Z" transform="translate(331.793 -100.038)"/><path class="z" d="M-335.762,98.262c.322.109.448.647.433.986-.017.377-.265.611-.544.373a1.275,1.275,0,0,1-.391-.764C-336.312,98.489-336.084,98.153-335.762,98.262Z" transform="translate(344.574 -95.498)"/><path class="o" d="M-323.094,101.5c.068.023.1.138.067.234s-.109.163-.178.141-.09-.125-.067-.232S-323.163,101.473-323.094,101.5Z" transform="translate(334.045 -98.133)"/><path class="o" d="M-316.8,103.232c.068.023.1.126.067.232s-.112.175-.18.151-.1-.128-.067-.234S-316.866,103.209-316.8,103.232Z" transform="translate(328.945 -99.541)"/><path class="o" d="M-324.2,109.993a.033.033,0,0,0,.038-.027.035.035,0,0,0-.027-.038.908.908,0,0,1-.665-.448.032.032,0,0,0-.043-.015.032.032,0,0,0-.015.043.942.942,0,0,0,.587.457C-324.283,109.976-324.24,109.981-324.2,109.993Z" transform="translate(335.368 -104.595)"/><path class="o" d="M-316.209,100.51a.069.069,0,0,0,.04.046.549.549,0,0,1,.35.327.063.063,0,0,0,.077.045h0a.066.066,0,0,0,.044-.08h0a.67.67,0,0,0-.431-.413.067.067,0,0,0-.083.041A.081.081,0,0,0-316.209,100.51Z" transform="translate(328.313 -97.273)"/><path class="o" d="M-323.59,98.406a.068.068,0,0,0,.06.012.549.549,0,0,1,.477.042.063.063,0,0,0,.088-.011l0,0a.066.066,0,0,0-.014-.09h0a.67.67,0,0,0-.595-.061.067.067,0,0,0-.04.083A.081.081,0,0,0-323.59,98.406Z" transform="translate(334.315 -95.508)"/><g transform="translate(0 19.345)"><path class="z" d="M-379.642,185.96l-.246-.028c-.579.279.05,1.35.05,1.35l1.7-.208-.494-.578A1.573,1.573,0,0,0-379.642,185.96Z" transform="translate(380.133 -185.932)"/><path class="z" d="M-376.838,192.689l-.056-.737-1.7.208.1.874a.258.258,0,0,0,.007.038.259.259,0,0,0,.316.185l1.148-.3A.259.259,0,0,0-376.838,192.689Z" transform="translate(378.889 -190.812)"/></g><path class="b" d="M-332.468,141.481s-.593,1.426-.854,1.229a6.705,6.705,0,0,1-.865-1.31c0-.038.74-6.524.74-6.524l.354.03C-333.239,135.634-332.468,141.481-332.468,141.481Z" transform="translate(342.886 -125.196)"/></g><path class="l" d="M-379.911,128.041c-.707,1.013-.877,5.765-.692,6.986a.926.926,0,0,1,1.213-.152,46.405,46.405,0,0,1,.987-5.074,1.5,1.5,0,0,1,.581-.872c1.249-.906,3.511-2.7,3.761-3.4.4-1.14.057-3.465-.946-2.749A46.677,46.677,0,0,0-379.911,128.041Z" transform="translate(387.526 -115.281)"/></g></g></g></g></svg>