<svg xmlns="http://www.w3.org/2000/svg" width="98.473" height="38.272" viewBox="0 0 98.473 38.272"><defs><style>.a{fill:#dd3619;}.b{fill:#fff;}</style></defs><g transform="translate(-40 -26)"><path class="a" d="M258.673,50.345c.713.151,1.438.261,2.138.459a17.361,17.361,0,0,1,12.141,11.5c.1.271.062.419-.223.519-.259.092-.443.2-.659-.135a25.88,25.88,0,0,0-4.356-5.213,15.575,15.575,0,0,0-10.193-4.212A16.566,16.566,0,0,0,244.216,59a32.3,32.3,0,0,0-2.876,3.56c-.248.36-.46.162-.72.086-.322-.094-.228-.291-.149-.486A18.491,18.491,0,0,1,251.38,51.189a14.277,14.277,0,0,1,3.058-.716c.091-.013.195,0,.222-.128Z" transform="translate(-166.972 -24.345)"/><g transform="translate(40 45.711)"><path class="b" d="M141.338,111.625a5.816,5.816,0,0,0-4.373,4.518c-.059.207-.019.455-.231.6v2.864c.2.182.163.447.222.674a5.749,5.749,0,0,0,2.443,3.6,6.512,6.512,0,0,0,6.846.1c.745-.377.737-.392.333-1.137-.378-.7-.378-.7-1.053-.338-3.02,1.6-6.177.087-6.608-3.161-.058-.441-.044-.667.542-.657,2.463.041,4.927.006,7.39.028.426,0,.563-.11.562-.536a13.433,13.433,0,0,0-.133-2.508A4.757,4.757,0,0,0,141.338,111.625Zm2.716,5.56h-1.831c-.992,0-1.984,0-2.975,0-.17,0-.409.081-.37-.258.21-1.8,1.531-3.9,3.949-3.653a2.793,2.793,0,0,1,2.5,2.172C145.826,117.185,145.826,117.185,144.054,117.185Z" transform="translate(-136.734 -111.478)"/><path class="b" d="M411.721,118.7c2.653.016,5.305,0,7.958-.01v-2.635c-.158-.045-.1-.181-.118-.282-.389-1.91-1.285-3.449-3.26-4.041a5.092,5.092,0,0,0-5.4,1.405,7.277,7.277,0,0,0-1.813,6.41,6.005,6.005,0,0,0,2.288,4.14,6.663,6.663,0,0,0,7.381.181c.416-.236.453-.413.218-.809-.517-.872-.495-.885-1.386-.451-2.991,1.457-6.018-.115-6.41-3.306C411.118,118.813,411.235,118.7,411.721,118.7Zm-.6-1.727a4.067,4.067,0,0,1,3.011-3.676,2.96,2.96,0,0,1,3.6,2.766c.16,1.117.16,1.117-.978,1.117H414.4c-.973,0-1.947,0-2.92-.006C411.35,117.178,411.135,117.3,411.122,116.978Z" transform="translate(-321.206 -111.478)"/><path class="b" d="M250.63,113.753c-.979,3.1-1.991,6.186-2.892,9.316-.16-.091-.17-.229-.214-.354q-1.541-4.355-3.09-8.707c-.184-.518-.259-1.224-.633-1.484s-1.068-.046-1.616-.093c-.528-.045-.536.122-.361.556q2.337,5.826,4.636,11.666c.088.223.247.437.177.7a6.185,6.185,0,0,1-1.228,2.672,2.079,2.079,0,0,1-2.135.8c-.632-.172-.8.04-.848.58a1.051,1.051,0,0,1-.074.334c-.2.439-.123.759.37.914h1.834a5.293,5.293,0,0,0,3.436-3.4c.163-.385.318-.775.455-1.171q1.654-4.771,3.3-9.545c.467-1.356.928-2.714,1.4-4.106h-.754C251.039,112.439,251.044,112.441,250.63,113.753Z" transform="translate(-207.871 -112.097)"/><path class="b" d="M345.14,115.371a4.028,4.028,0,0,0-4.422-3.831,8.381,8.381,0,0,0-3.664.995c-1.246.635-1.231.619-.547,1.835.2.35.335.294.6.119a7.108,7.108,0,0,1,2.175-.979c2.28-.6,3.772.455,3.8,2.654,0,.3-.067.382-.362.417-.7.082-1.4.189-2.088.333a9.414,9.414,0,0,0-4.084,1.66c-1.758,1.39-1.7,5.1.927,6.081a4.725,4.725,0,0,0,3.776-.248,11.887,11.887,0,0,0,2.018-1.3c.181,1.519.181,1.5,1.5,1.506.389,0,.471-.121.468-.485-.017-1.908,0-3.817-.011-5.726A23.834,23.834,0,0,0,345.14,115.371Zm-3.011,6.923a4.063,4.063,0,0,1-3,.847,2.025,2.025,0,0,1-1.187-3.374,3.43,3.43,0,0,1,1.358-.922,14.03,14.03,0,0,1,3.432-.826c.288-.04.37.021.359.308-.019.495-.005.991-.005,1.487a3.24,3.24,0,0,0,.006.628A1.687,1.687,0,0,1,342.128,122.294Z" transform="translate(-271.309 -111.519)"/><path class="b" d="M183.885,116.672a8.9,8.9,0,0,0-.13-1.538,3.955,3.955,0,0,0-4.276-3.6,8.3,8.3,0,0,0-3.725.979c-1.292.655-1.285.646-.577,1.867.16.275.262.32.545.134a6.469,6.469,0,0,1,3.243-1.161,2.373,2.373,0,0,1,2.693,2.083c.212,1.022.165,1.089-.871,1.222-.057.007-.114.007-.171.016a13.321,13.321,0,0,0-4.684,1.391,3.711,3.711,0,0,0-1.669,4.731,3.66,3.66,0,0,0,4.21,2.066,7.791,7.791,0,0,0,3.433-1.758c.038.17.063.261.078.354.192,1.144.192,1.125,1.34,1.15.426.01.577-.074.572-.546C183.871,121.6,183.886,119.135,183.885,116.672Zm-3.6,5.936a3.255,3.255,0,0,1-3.265.267,2.059,2.059,0,0,1-.4-3.128,3.71,3.71,0,0,1,1.524-.98,14.887,14.887,0,0,1,3.165-.741c.391-.059.452.088.434.423-.024.457-.006.916-.006,1.374a1.74,1.74,0,0,0,0,.4C182.053,121.5,181.213,122.086,180.289,122.608Z" transform="translate(-161.969 -111.517)"/><path class="b" d="M309.378,118.269a14.356,14.356,0,0,0-1.7-.8,16.949,16.949,0,0,1-2.307-.98,1.584,1.584,0,0,1-.946-1.616,1.763,1.763,0,0,1,1.451-1.5,3.989,3.989,0,0,1,2.713.391c.364.176.693.688,1.048.524s.545-.661.807-1.012a.453.453,0,0,1,.031-.048c.162-.168.1-.272-.067-.409a6.073,6.073,0,0,0-6.211-.7,3.261,3.261,0,0,0-.368,5.676,9.334,9.334,0,0,0,1.942.957,11.158,11.158,0,0,1,2.278,1.044,1.72,1.72,0,0,1,.9,1.774,1.815,1.815,0,0,1-1.434,1.533,4.764,4.764,0,0,1-3.726-.635c-.358-.21-.708-.722-1.03-.612-.344.117-.53.661-.823.984-.259.287-.151.431.112.617a7.6,7.6,0,0,0,4.418,1.49,5.483,5.483,0,0,0,2.849-.714A3.463,3.463,0,0,0,309.378,118.269Z" transform="translate(-248.572 -111.539)"/><path class="b" d="M218.677,118.207a13.987,13.987,0,0,0-1.652-.776,16.72,16.72,0,0,1-2.309-.978,1.579,1.579,0,0,1-.961-1.662,1.79,1.79,0,0,1,1.488-1.465,3.943,3.943,0,0,1,2.708.418c.347.175.678.653,1,.514s.521-.629.772-.964a1.358,1.358,0,0,1,.1-.139c.156-.16.067-.258-.075-.362a5.976,5.976,0,0,0-6.259-.692,3.254,3.254,0,0,0-.256,5.712,11.015,11.015,0,0,0,1.635.808,13.214,13.214,0,0,1,2.489,1.128,1.73,1.73,0,0,1,.923,1.764,1.824,1.824,0,0,1-1.475,1.562,4.829,4.829,0,0,1-3.724-.663c-.349-.2-.654-.725-1.026-.577-.332.132-.5.646-.779.956-.245.27-.2.415.083.616a7.491,7.491,0,0,0,4.117,1.5,6.1,6.1,0,0,0,3.051-.645A3.469,3.469,0,0,0,218.677,118.207Z" transform="translate(-187.136 -111.496)"/><path class="b" d="M380.887,112.494c-.431-.04-.577.147-.7.522-1.125,3.473-2.306,6.929-3.354,10.459a2.311,2.311,0,0,1-.409-1.012c-1.033-3.164-2.052-6.333-3.078-9.5-.064-.2-.037-.471-.384-.463-.642.014-1.285,0-1.923,0-.008.087-.025.129-.013.161q2.188,6.154,4.378,12.307a.372.372,0,0,0,.423.277c.592-.016,1.185-.025,1.776,0,.329.016.45-.106.555-.41.9-2.606,1.821-5.206,2.737-7.807.527-1.5,1.058-2.995,1.6-4.53C381.916,112.5,381.4,112.541,380.887,112.494Z" transform="translate(-295.484 -112.163)"/><path class="b" d="M284.928,129.159c-1.429.015-2.859.006-4.288.006-1.232,0-1.214,0-1.207,1.227,0,.382.146.433.471.426.838-.019,1.677-.006,2.516-.006h1.83c1.193,0,1.171,0,1.178-1.2C285.43,129.2,285.27,129.155,284.928,129.159Z" transform="translate(-233.423 -123.458)"/></g></g></svg>